<?xml version="1.0" encoding="utf-8"?>
<!-- Generator: Adobe Illustrator 23.0.3, SVG Export Plug-In . SVG Version: 6.00 Build 0)  -->
<svg version="1.1" id="Layer_1" xmlns="http://www.w3.org/2000/svg" xmlns:xlink="http://www.w3.org/1999/xlink" x="0px" y="0px"
	 viewBox="0 0 720 720" style="enable-background:new 0 0 720 720;" xml:space="preserve">
<style type="text/css">
	.st0{fill:#FFFFFF;}
	.st1{fill:#6ABD45;}
	.st2{fill:#6FCCDD;}
</style>
<g>
	<g>
		<g>
			<path class="st0" d="M159,333.24c1.32-0.75,2.64-1.52,3.94-2.33c5.65-3.49,17.92-10.98,15.35-19.28
				c-0.32-1.02-0.85-1.96-1.47-2.83c-1.67-2.36-4.08-4.31-6.91-4.93c-1.57-0.34-3.19-0.27-4.79-0.2c-5.85,0.27-11.33,0.01-16.7,2.3
				c-5.69,2.43-11.6,4.44-17.38,6.65c-11.58,4.43-23.16,8.88-34.75,13.3c-5.13,1.96-10.53,4.15-14.21,9.54
				c-7.03,10.31-6.83,30.47-3.09,41.82c5.61,17.02,16.14,31.13,10.82,50.11c-2.67,9.53-9.02,17.65-12.07,27.06
				c-2.43,7.52-2.6,15.73-0.59,23.36c2.48,9.42,5.24,9.66,14.25,7.17c9.57-2.64,18.29-7.64,26.27-13.46c3.44-2.5,8.31-5.34,10.5-9
				c2.45-4.08,3.51-7.02,7.55-10.27c8.86-7.14,18.09-14.46,29.11-17.29c4.82-1.23,9.92-1.59,14.41-3.71
				c5.29-2.5,9.24-7.25,11.86-12.48c2.62-5.23,4.04-10.96,5.45-16.63c0.44-1.79,0.89-3.65,0.57-5.47c-0.35-1.95-1.55-3.63-2.74-5.21
				c-2.93-3.9-6.21-7.85-10.73-9.68c-4.73-1.92-10.26-1.18-14.8,1.15c-14.13,7.27-21.83,25.46-31.59,37.25
				c-5.47,6.61-14.58,19.45-23.69,20.49c-5.17,0.59-11.02-4.21-11.28-11.49c-0.15-4.17,1.52-8.04,3.46-11.2
				c7.37-12.01,19.56-18.18,24.23-32.61c-4.35-6.35-11.54,4.01-17.76,2.83c-5.85-1.11-7.92-12.72-4.93-19.88
				c2.99-7.16,8.85-10.72,14.32-13.84C134.07,347.41,146.54,340.32,159,333.24z"/>
		</g>
		<g>
			<path class="st0" d="M190.56,289.96c-7.07,5.9-8.68,15.2-6.92,23.94c0.65,3.26,2.03,6.32,3.52,9.29
				c2.61,5.21,5.61,10.23,8.96,15.01c2.04,2.91,4.21,5.74,6.03,8.79c1.59,2.67,2.32,6.09,4.51,8.27c4.79,4.79,9.66,8.97,10.59,16.18
				c1.2,9.3-5.22,17.84-6.52,27.12c-0.43,3.06-0.17,6.51,1.98,8.74c1.92,1.99,4.89,2.53,7.65,2.66
				c24.85,1.17,38.53-20.56,45.36-41.35c2.28-6.93,4.37-13.94,5.6-21.12c1.92-11.26,1.69-22.81,3.98-34.01
				c1.44-7.04,3.86-13.87,6.63-20.52c2.53-6.08,7.88-17.73,2.55-23.83c-5.63-6.44-18.69-2.27-25.38-0.12
				c-6.72,2.16-14.34,5.21-16.82,12.63c-1.42,4.24-0.77,8.97-0.11,13.45c1.33,8.93,3.45,17.74,4.81,26.68
				c0.49,3.2,4.98,28.29-4.41,22.47c-1.71-1.06-2.76-2.89-3.74-4.65c-8.05-14.42-16.24-29.26-18.55-45.61
				c-0.25-1.79-0.46-3.67-1.45-5.18c-1.16-1.78-3.21-2.76-5.23-3.4C205.55,282.85,196.68,284.86,190.56,289.96z"/>
		</g>
		<g>
			<path class="st0" d="M406.16,332.17c7.85,10.4-4.61,23.6-12.46,29.56c-3.99,3.03-9.01,5.02-13.97,4.36
				c-2.21-0.29-4.33-1.09-6.54-1.35c-3.27-0.38-6.56,0.43-9.71,1.41c-7.91,2.46-15.47,6.04-22.4,10.58
				c-3.84,2.52-7.5,5.35-11.64,7.35c-3.51,1.7-7.33,2.75-11.22,3.12c-3.34,0.32-7.21-1.05-10.36-0.53
				c-3.11,0.51-6.17,2.82-9.52,3.39c-3.15,0.53-6.38,0.57-9.56,0.54c-3.72-0.04-8.07-0.55-9.97-3.75
				c-2.46-4.17,1.08-9.14,2.59-13.74c2.17-6.61-0.04-13.74-1.23-20.6c-2.08-12.03-0.79-24.72,4.26-35.88
				c2.24-4.95,5.82-8.83,7.59-14.09c1.85-5.5,2.52-11.34,3.15-17.08c0.27-2.44,0.53-4.95-0.06-7.33c-1.08-4.35-4.91-7.87-5.04-12.35
				c-0.02-0.7,0.07-1.45,0.51-2c0.41-0.52,1.05-0.79,1.68-1c4.76-1.6,9.98-1.11,14.87-2.23c11.02-2.54,18.3-13.01,29.19-15.44
				c14.09-3.14,28.38-6.18,42.52-9.47c3.44-0.8,7.2-1.55,10.31,0.35c4.84,2.96,5.62,11.28,2.95,16.87
				c-4.11,8.59-16.77,15.8-25.61,18.35c-10.7,3.09-22.66,0.65-32.86,5.13c-7.18,3.15-12.77,9.71-14.72,17.3
				c-1.11,4.29-0.93,9.29,2.05,12.57c2.65,2.91,6.99,3.78,10.88,3.17c4-0.63,16.22-9.02,18.12-1.21c0,8.36-12.62,12.48-18.8,16.18
				c-3.93,2.35-7.9,4.73-11.1,7.99s-5.61,7.56-5.65,12.13c-0.04,4.57,2.72,9.3,7.09,10.66c1.27,0.39,2.62,0.5,3.95,0.52
				c9.35,0.12,19.2-4.12,27.41-8.19c10.46-5.18,20.92-10.36,31.37-15.53C391.45,328.33,400.97,325.29,406.16,332.17z"/>
		</g>
		<g>
			<path class="st0" d="M418.03,337.63c2.02,4.88,5.73,9.09,10.99,10.44c4.87,1.25,13.61,0.65,17.19-3.07
				c2.03-2.11,3.38-4.77,5.14-7.11c7.35-9.76,21.07-12.62,33.18-10.97c4.66,0.64,9.37,1.83,14,1.04
				c10.31-1.75,13.57-14.36,12.48-23.22c-0.87-7.1-5.4-14.12-12.26-16.14c-4.1-1.21-8.53-0.56-12.66,0.54
				c-15.37,4.06-28.83,14.1-38.37,26.82c-0.77,1.03-1.64,2.16-2.91,2.41c-1.64,0.32-3.2-1.08-3.72-2.66
				c-0.52-1.58-0.29-3.3-0.16-4.96c0.91-11.09-2.56-22.03-3.78-33.09c-1.47-13.36,0.35-26.86-0.05-40.3
				c-0.16-5.56-1.18-11.92-5.91-14.84c-3.49-2.15-7.93-1.7-12-1.18c-11.61,1.49-17.41,11.93-16.46,23.11
				c0.62,7.29,3.69,14.12,6.9,20.7c3.21,6.57,6.66,13.15,8.13,20.32c1.4,6.82,1.4,14.68,0.66,21.57c-0.8,7.44-3.16,14.27-2.47,21.91
				C416.25,332.06,416.95,335.01,418.03,337.63z"/>
		</g>
		<g>
			<path class="st0" d="M530.6,240.99c0.01,0.18,0.01,0.36,0.01,0.53c-0.2,11.24-12.06,1.23-15.17-2.37
				c-4.96-5.74-9.93-11.49-14.89-17.23c-3.91-4.52-8.01-9.19-13.52-11.51c-4.59-1.93-9.73-2.02-14.69-1.65
				c-5.71,0.43-11.6,1.53-16.22,4.9c-4.62,3.38-7.61,9.54-5.8,14.96c2.46,7.39,11.55,9.68,19.18,11.25
				c9.13,1.88,18.14,4.33,26.97,7.33c19.12,6.5,31.91,25.94,25.42,46.19c-4.04,12.6-11.34,24.35-1.03,35.99
				c3.72,4.2,8.78,7.1,14.19,8.58c13.85,3.78,22.57-13.68,21.01-25.61c-0.54-4.17-2.09-8.13-3.63-12.04
				c-3.71-9.44-10.17-20.03-9.78-30.24c0.44-11.6,2.6-22.33,6.9-33.16c1.96-4.94,3.93-9.88,5.89-14.83
				c1.7-4.28,4.56-8.97,5.32-13.48c0.37-2.18-0.05-4.48-1.17-6.42c-5.46-9.45-17.41-5.87-26.07-4.32c-2.06,0.37-4.26,0.86-5.65,2.41
				c-1.64,1.83-1.67,4.55-1.61,7.01c0.24,9.36,0.5,18.83,3.08,27.83C529.86,237.06,530.52,239,530.6,240.99z"/>
		</g>
		<g>
			<path class="st0" d="M582.38,323.08c-2,0.67-4.08,1.36-6.09,2.45c-18.15,9.84-13.5-9.61-13.56-21.08
				c-0.04-7.68-4.07-14.11-4.27-21.38c-0.26-9.37,5.03-17.88,5.44-27.19c0.26-5.89-1.43-11.67-2.5-17.47
				c-1.44-7.77-1.74-15.93,0.64-23.47s7.76-14.39,15.14-17.2c7.39-2.81,16.71-0.82,21.32,5.6c3.73,5.19,3.92,12.01,4.79,18.34
				c2.43,17.65,11.42,34.31,24.83,46.04c4.35-16,0.9-32.93,0.85-49.51s4.97-35.33,19.73-42.88c7.88-4.03,17.14-4.08,25.99-3.67
				c-0.31,13.09-10.39,23.86-13.69,36.53c-2.83,10.89-0.47,22.34,0.46,33.56c0.78,9.42,0.51,18.87-0.05,28.29
				c-0.44,7.35,0.66,15.56-3.51,21.91c-0.3,0.46-3.34,6.02-2.99,5.86c-9.19,4.38-19.76,6.23-29.71,4.1
				c-9.95-2.14-19.15-8.52-23.68-17.63c-1.62-3.26-2.63-6.78-3.63-10.29c-1.02-3.59-2.06-7.18-3.08-10.77
				c-0.78-2.72-0.88-6.75-2.37-9.09c-1-1.56-2.96-2.6-4.75-2.1c-0.08,10.65,1.08,21.35,2.26,31.94c1.07,9.31,5.3,20.25,2.91,29.52
				C591.19,320,587.02,321.52,582.38,323.08z"/>
		</g>
		<g>
			<path class="st0" d="M84.29,559.68c-4.01,2.55-7.9,6.14-9.9,11.5c-2.41,6.46-1.56,14.59,1.38,20.63
				c2.21,4.53,6.21,9.49,10.55,11.33c4.12,1.74,9.7,0.56,14.03-0.16c9.76-1.6,19.51-5.7,26.55-13.94
				c7.66-8.97,11.11-21.26,16.25-32.1c2.67-5.63,6.6-9.6,9.62-14.73c3.52-6.01,6.2-13.1,9.75-19.27
				c5.72-9.94,10.56-20.55,14.5-31.57c4.06-11.33,6.14-22.97,9.59-34.48c1.07-3.56,2.03-7.89-0.07-10.78
				c-1.62-2.24-4.45-2.64-6.97-2.53c-3.66,0.16-7.28,1.03-10.79,2.24c-3.96,1.37-7.88,3.2-11.08,6.22
				c-5.84,5.5-8.4,13.86-9.88,21.54c-1.7,8.85-3.96,17.36-7.7,25.64c-2.12,4.68-5.05,9.6-9.95,11.13c-1.72,0.54-3.69,0.57-5.23-0.37
				c-5.31-3.25,5.96-36.12-3.93-34.62c-3.73,0.57-7.1,2.45-10.39,4.3c-4.31,2.43-8.62,4.85-12.76,7.57
				c-4.91,3.22-9.94,7.47-10.67,13.3c-0.58,4.65,1.69,8.89,2.89,13.22c1.27,4.59,2.76,9.11,4.46,13.55
				c2.41,6.28,5.89,13.02,12.26,15.18c6.44,2.19,11.05,3.19,9.65,11.39c-0.92,5.38-3.23,10.52-6.66,14.77
				c-0.53,0.66-1.1,1.31-1.81,1.75c-0.96,0.6-2.12,0.79-3.25,0.91c-2.31,0.25-4.69,0.26-6.91-0.44c-4.1-1.29-5.85-4.89-6.43-8.92
				c-0.3-2.07,0.1-2.4-1.31-3.11C88.04,557.8,86.23,558.45,84.29,559.68z"/>
		</g>
		<g>
			<path class="st0" d="M254.92,478.98c2.03-7.47,3.95-15.05,4.7-22.82c0.62-6.42,0.46-12.66-2.03-18.69
				c-2.43-5.88-4.38-11.2-3.94-17.71c0.17-2.58,0.6-5.41-0.84-7.56c-1.51-2.26-4.64-2.9-7.31-2.36c-2.66,0.53-5.03,2-7.46,3.2
				c-3.57,1.77-7.41,3.02-11.34,3.71c-4.83,0.84-9.86,0.84-14.42,2.64c-5.01,1.99-8.94,6.29-10.84,11.3
				c-2.07,5.44-0.66,10.94-0.56,16.58c0.13,6.91-0.83,13.84-2.82,20.46c-0.9,2.99-2.35,5.9-3,8.88c-0.67,3.07-1.06,6.08-2.02,9.12
				c-3.61,11.34-8.47,22.28-14.46,32.56c-4.47,7.68-15.87,21.35-10.48,30.66c1.13,1.94,2.91,3.35,4.81,4.38
				c8.24,4.5,18.11,2.53,27.14,0.46c11.17-2.56,22.94-5.45,31.3-13.86c7.64-7.69,11.27-18.85,14.51-29.58
				C249.03,499.94,252.06,489.49,254.92,478.98z"/>
		</g>
		<g>
			<path class="st0" d="M296.43,425.71c0-1.12,0.29-2.36,0.52-3.44c1.58-7.19-1.92-11.85-9.1-14.16c-3.82-1.23-7.91-1.32-11.91-1.13
				c-5.08,0.24-10.73,1.24-13.74,5.34c-2.55,3.48-2.42,8.31-1.06,12.4c1.36,4.09,3.78,7.73,5.63,11.63
				c10.97,23.2-4.13,50.48-5.34,74.33c-0.29,5.65-0.14,12.28,4.41,15.65c1.89,1.4,4.25,1.97,6.56,2.38
				c4.04,0.73,8.15,1.09,12.26,1.08c1.64,0,3.33-0.08,4.84-0.73c1.35-0.58,2.46-1.59,3.58-2.54c6.05-5.06,13.32-8.66,21.01-10.4
				c3.7-0.84,7.62-1.29,10.82-3.33c5.17-3.29,7.13-9.76,8.71-15.68c8.7-32.59,18.65-63.98,33.84-94.35
				c1.62-4.28,3.13-8.98,2.02-13.45c-1.13-4.51-4.82-7.84-8.85-9.41c-9.41-3.68-20.24,1.2-26.99,9.27s-10.21,18.74-13,29.24
				c-4.74,17.82-8.08,36.09-9.97,54.53c-0.31,3.05-0.74,6.43-2.91,8.37c-2.91,2.6-7.6,1.02-9.89-2.24s-2.78-7.59-3.06-11.69
				C293.88,453.49,294.42,439.47,296.43,425.71z"/>
		</g>
		<g>
			<path class="st0" d="M429.52,372.97c-0.04-2.11-0.08-4.27-0.76-6.22c-0.85-2.45-2.63-4.31-4.51-5.77
				c-4.68-3.65-11.02-5.31-15.9-2.05c-4.65,3.11-6.75,9.02-10.19,13.24c-2.69,3.31-7.12,5.73-9.33,9.33
				c-2.7,4.43-1.69,9.69-4.98,14.19c-3.22,4.41-7.86,7.55-11.26,11.81c-5.01,6.29-7.13,14.79-5.65,22.7
				c0.21,1.12,0.51,2.27,1.22,3.16c1.21,1.5,3.28,1.93,5.17,2.29c5.26,1.02,10.45,2.39,15.53,4.09c4.98,1.66,10.14,3.87,13.1,8.2
				c2.2,3.21,2.91,7.24,2.75,11.12c-0.21,5.27-2.04,10.61-5.78,14.33s-9.53,5.53-14.52,3.82c-5.1-1.75-8.49-6.68-10.33-11.75
				c-1.84-5.07-2.51-10.5-4.24-15.61c-0.64-1.88-1.74-3.98-3.7-4.26c-0.85-0.12-1.7,0.13-2.49,0.47
				c-6.73,2.9-9.23,10.98-10.96,18.11c-1.72,7.09-3.44,14.18-5.16,21.28c-1.08,4.47-2.1,9.47,0.21,13.45
				c2.89,4.98,9.51,6.03,15.24,6.54c14.95,1.34,28.92,5.09,42.09-3.87c11.55-7.86,20.97-19.97,26.6-34.18
				c2.75-6.95,4.59-15.07,2.16-22.18c-1.87-5.46-5.93-9.39-9.84-13.07c-6.38-6.02-12.76-12.03-19.14-18.05
				c-1.93-1.82-3.95-3.78-4.8-6.51c-0.85-2.73,0.04-6.42,2.41-7.25c2.62-0.91,5,1.93,6.7,4.44c3.38,5,7.19,10.16,12.41,11.96
				c0.85,0.29,1.77,0.49,2.6,0.13c0.91-0.39,1.53-1.36,2.05-2.3c4.42-8,4.61-16.7,4.04-25.83c-0.06-0.88-0.01-1.77,0-2.66
				C430.32,381.7,429.59,377.37,429.52,372.97z"/>
		</g>
		<g>
			<path class="st0" d="M490.42,359.71c0.09-1.01,0.18-2.02,0.25-3.02c0.46-6.82-0.5-14.55-5.84-18.83
				c-3.28-2.63-7.71-3.46-11.91-3.29c-17.97,0.72-26.92,16.07-29.04,32.31c-2.13,16.39-1.12,42.35,13.01,53.3
				c6.89,5.34,16.85,7.01,21.53,14.36c2.36,3.7,2.91,8.25,3.14,12.63c0.08,1.59,0.1,3.28-0.71,4.65
				c-4.12,6.97-16.98-6.49-19.69-9.37c-4.04-4.28-8.09-8.57-12.13-12.85c-4-4.23-9.45-8.86-14.93-6.91c-0.57,0.2-1.13,0.49-1.5,0.96
				c-0.37,0.47-0.53,1.08-0.57,1.68c-0.32,4.08,3.47,7.11,5.91,10.4c4.89,6.6,4.64,15.51,5.16,23.71
				c0.38,6.03,0.64,12.34,5.48,16.26c4.61,3.73,10.57,4.85,16.35,5.12c18.94,0.89,46.6-8.48,48.02-31.05
				c0.73-11.66-7.28-23.15-16.72-29.16c-12.98-8.26-28.15-12.89-34.6-28.06c-1.43-3.36-1.55-7.72-4.64-9.66
				c-0.66-0.42-1.44-0.69-1.96-1.27c-1.31-1.44-0.33-3.85,1.18-5.08c2.29-1.86,5.48-2.3,8.39-1.81c3.51,0.58,7.22,3.11,7.17,6.66
				c-0.01,0.87-0.25,1.77,0.03,2.59c0.57,1.73,2.83,2.04,4.4,2.96c3.53,2.06,3.43,7.36,6.19,10.31c3.6,3.86,9.05,6.68,14.29,7.2
				c0.72,0.07,1.48,0.1,2.14-0.19c1.36-0.58,1.91-2.23,2.03-3.7c0.7-8.6-7.32-15.27-9.95-23.49
				C489.1,371.51,489.87,365.57,490.42,359.71z"/>
		</g>
		<g>
			<path class="st0" d="M589.08,334c-0.75-2.54-2.93-4.32-7.24-4.2c-14.28,0.39-23.5,16.48-37.59,18.74
				c-8.62,1.38-17.24-2.81-24.03-8.21c-2.37-1.88-4.71-3.98-7.64-4.8c-5.8-1.62-11.98,2.63-14.33,8.06
				c-2.35,5.43-1.78,11.63-0.77,17.45c0.89,5.16,0.86,10.64,1.82,15.7c0.76,4.03,3.55,7.64,5.28,11.37c0.95,2.05,1.67,4.2,2.39,6.34
				c2.98,8.88,6.87,17.39,10.53,26c1.73,4.07,3.89,8.09,4.1,12.52c0.21,4.41,1.82,7.97,1.07,12.38c-0.57,3.34-1.52,6.63-2.8,9.77
				c-1.16,2.82-2.49,6-2.15,9.12c0.26,2.4,1.94,4.83,4.34,5.12c0.98,0.12,1.96-0.12,2.92-0.36c1.57-0.39,3.13-0.79,4.7-1.18
				c5.94-1.49,9.48-6.7,13.67-10.73c5.19-5.01,11.62-8.72,18.55-10.71c4.38-1.26,9.07-1.9,12.84-4.45
				c4.57-3.09,6.99-8.4,10.38-12.74c1.87-2.39,4.07-4.51,5.79-7.01c1.72-2.5,2.95-5.51,2.53-8.51c-1.57-11.24-20.63-6.05-26.71-2.68
				c-6.71,3.73-12.04,9.43-16.66,15.48c-1.4,1.83-3.47,3.94-5.66,3.13c-1.33-0.49-2.02-1.89-2.56-3.17
				c-2.27-5.43-3.96-11.09-5.04-16.86c-0.49-2.64-0.55-5.96,1.81-7.3c1.45-0.83,3.26-0.53,4.94-0.5c4.76,0.08,9.47-2.42,12-6.37
				s2.79-9.2,0.66-13.37c-0.61-1.2-1.45-2.35-2.67-2.95c-1.33-0.65-2.9-0.56-4.37-0.33c-6.08,0.93-11.81,3.87-16.05,8.22
				c-2.84,2.91-6.33,6.83-10.18,5.38c-3.38-1.27-3.88-5.67-3.83-9.21c0.09-5.95,2.32-9.41,8.4-11.24c3.48-1.05,7.17-1.22,10.77-1.76
				c13.07-1.97,23.09-9.6,34.61-15.14c4.35-2.09,8.7-4.43,11.98-7.97C587.98,343.61,590.23,337.91,589.08,334z"/>
		</g>
		<g>
			<path class="st0" d="M642.4,315.38c-7.72,0.02-15.73-3.73-23.82-3.72c-29.02,0.01-26.27,36.49-27.12,51.67
				c-0.6,10.75-1.05,22.07,5.15,31.64c3.45,5.32,9.99,11.31,9.36,17.71c-0.67,6.8-5.3,13.05-5.44,20.37
				c-0.02,0.89,0.01,1.83,0.54,2.62c0.59,0.86,1.7,1.42,2.83,1.8c8.75,2.95,18.22-2.42,24.92-7.79
				c6.35-5.09,12.71-11.54,11.39-18.65c-0.79-4.26-4.24-7.85-6.67-11.7c-2.42-3.85-3.7-8.83-0.39-12.23
				c3.02-3.11,8.51-3.62,13.19-4.87c8.8-2.34,15.99-8.22,18.72-15.29c0.81-2.09,0.97-4.82-1.34-6.01c-1.8-0.92-4.15-0.4-6.18,0.13
				c-7.96,2.08-30.43,10.25-35.37,3.48c-5.18-7.1,1.52-18.31,9.77-21.69c6.42-2.63,14.02-2.39,21.08-3.62
				c10.85-1.88,20.59-7.5,26.24-15.13c5.64-7.62,7.1-17.14,3.93-25.62c-0.33-0.89-0.77-1.83-1.72-2.38
				c-0.89-0.51-2.06-0.56-3.16-0.54c-6.95,0.17-13.7,3.11-17.65,7.67c-2.24,2.59-3.64,5.66-6.39,7.92
				C650.41,314.32,646.45,315.37,642.4,315.38z"/>
		</g>
	</g>
	<g>
		<g>
			<path d="M153.48,334.23c1.32-0.75,2.64-1.52,3.94-2.33c5.65-3.49,17.92-10.98,15.35-19.28c-0.32-1.02-0.85-1.96-1.47-2.83
				c-1.67-2.36-4.08-4.31-6.91-4.93c-1.57-0.34-3.19-0.27-4.79-0.2c-5.85,0.27-11.33,0.01-16.7,2.3c-5.69,2.43-11.6,4.44-17.38,6.65
				c-11.58,4.43-23.16,8.88-34.75,13.3c-5.13,1.96-10.53,4.15-14.21,9.54c-7.03,10.31-6.83,30.47-3.09,41.82
				c5.61,17.02,16.14,31.13,10.82,50.11c-2.67,9.53-9.02,17.65-12.07,27.06c-2.43,7.52-2.6,15.73-0.59,23.36
				c2.48,9.42,5.24,9.66,14.25,7.17c9.57-2.64,18.29-7.64,26.27-13.46c3.44-2.5,8.31-5.34,10.5-9c2.45-4.08,3.51-7.02,7.55-10.27
				c8.86-7.14,18.09-14.46,29.11-17.29c4.82-1.23,9.92-1.59,14.41-3.71c5.29-2.5,9.24-7.25,11.86-12.48
				c2.62-5.23,4.04-10.96,5.45-16.63c0.44-1.79,0.89-3.65,0.57-5.47c-0.35-1.95-1.55-3.63-2.74-5.21c-2.93-3.9-6.21-7.85-10.73-9.68
				c-4.73-1.92-10.26-1.18-14.8,1.15c-14.13,7.27-21.83,25.46-31.59,37.25c-5.47,6.61-14.58,19.45-23.69,20.49
				c-5.17,0.59-11.02-4.21-11.28-11.49c-0.15-4.17,1.52-8.04,3.46-11.2c7.37-12.01,19.56-18.18,24.23-32.61
				c-4.35-6.35-11.54,4.01-17.76,2.83c-5.85-1.11-7.92-12.72-4.93-19.88c2.99-7.16,8.85-10.72,14.32-13.84
				C128.56,348.4,141.02,341.31,153.48,334.23z"/>
		</g>
		<g>
			<path d="M185.05,290.95c-7.07,5.9-8.68,15.2-6.92,23.94c0.65,3.26,2.03,6.32,3.52,9.29c2.61,5.21,5.61,10.23,8.96,15.01
				c2.04,2.91,4.21,5.74,6.03,8.79c1.59,2.67,2.32,6.09,4.51,8.27c4.79,4.79,9.66,8.97,10.59,16.18c1.2,9.3-5.22,17.84-6.52,27.12
				c-0.43,3.06-0.17,6.51,1.98,8.74c1.92,1.99,4.89,2.53,7.65,2.66c24.85,1.17,38.53-20.56,45.36-41.35
				c2.28-6.93,4.37-13.94,5.6-21.12c1.92-11.26,1.69-22.81,3.98-34.01c1.44-7.04,3.86-13.87,6.63-20.52
				c2.53-6.08,7.88-17.73,2.55-23.83c-5.63-6.44-18.69-2.27-25.38-0.12c-6.72,2.16-14.34,5.21-16.82,12.63
				c-1.42,4.24-0.77,8.97-0.11,13.45c1.33,8.93,3.45,17.74,4.81,26.68c0.49,3.2,4.98,28.29-4.41,22.47
				c-1.71-1.06-2.76-2.89-3.74-4.65c-8.05-14.42-16.24-29.26-18.55-45.61c-0.25-1.79-0.46-3.67-1.45-5.18
				c-1.16-1.78-3.21-2.76-5.23-3.4C200.04,283.84,191.16,285.85,185.05,290.95z"/>
		</g>
		<g>
			<path d="M400.64,333.16c7.85,10.4-4.61,23.6-12.46,29.56c-3.99,3.03-9.01,5.02-13.97,4.36c-2.21-0.29-4.33-1.09-6.54-1.35
				c-3.27-0.38-6.56,0.43-9.71,1.41c-7.91,2.46-15.47,6.04-22.4,10.58c-3.84,2.52-7.5,5.35-11.64,7.35
				c-3.51,1.7-7.33,2.75-11.22,3.12c-3.34,0.32-7.21-1.05-10.36-0.53c-3.11,0.51-6.17,2.82-9.52,3.39
				c-3.15,0.53-6.38,0.57-9.56,0.54c-3.72-0.04-8.07-0.55-9.97-3.75c-2.46-4.17,1.08-9.14,2.59-13.74
				c2.17-6.61-0.04-13.74-1.23-20.6c-2.08-12.03-0.79-24.72,4.26-35.88c2.24-4.95,5.82-8.83,7.59-14.09
				c1.85-5.5,2.52-11.34,3.15-17.08c0.27-2.44,0.53-4.95-0.06-7.33c-1.08-4.35-4.91-7.87-5.04-12.35c-0.02-0.7,0.07-1.45,0.51-2
				c0.41-0.52,1.05-0.79,1.68-1c4.76-1.6,9.98-1.11,14.87-2.23c11.02-2.54,18.3-13.01,29.19-15.44c14.09-3.14,28.38-6.18,42.52-9.47
				c3.44-0.8,7.2-1.55,10.31,0.35c4.84,2.96,5.62,11.28,2.95,16.87c-4.11,8.59-16.77,15.8-25.61,18.35
				c-10.7,3.09-22.66,0.65-32.86,5.13c-7.18,3.15-12.77,9.71-14.72,17.3c-1.11,4.29-0.93,9.29,2.05,12.57
				c2.65,2.91,6.99,3.78,10.88,3.17c4-0.63,16.22-9.02,18.12-1.21c0,8.36-12.62,12.48-18.8,16.18c-3.93,2.35-7.9,4.73-11.1,7.99
				s-5.61,7.56-5.65,12.13c-0.04,4.57,2.72,9.3,7.09,10.66c1.27,0.39,2.62,0.5,3.95,0.52c9.35,0.12,19.2-4.12,27.41-8.19
				c10.46-5.18,20.92-10.36,31.37-15.53C385.93,329.33,395.45,326.28,400.64,333.16z"/>
		</g>
		<g>
			<path d="M412.52,338.62c2.02,4.88,5.73,9.09,10.99,10.44c4.87,1.25,13.61,0.65,17.19-3.07c2.03-2.11,3.38-4.77,5.14-7.11
				c7.35-9.76,21.07-12.62,33.18-10.97c4.66,0.64,9.37,1.83,14,1.04c10.31-1.75,13.57-14.36,12.48-23.22
				c-0.87-7.1-5.4-14.12-12.26-16.14c-4.1-1.21-8.53-0.56-12.66,0.54c-15.37,4.06-28.83,14.1-38.37,26.82
				c-0.77,1.03-1.64,2.16-2.91,2.41c-1.64,0.32-3.2-1.08-3.72-2.66c-0.52-1.58-0.29-3.3-0.16-4.96c0.91-11.09-2.56-22.03-3.78-33.09
				c-1.47-13.36,0.35-26.86-0.05-40.3c-0.16-5.56-1.18-11.92-5.91-14.84c-3.49-2.15-7.93-1.7-12-1.18
				c-11.61,1.49-17.41,11.93-16.46,23.11c0.62,7.29,3.69,14.12,6.9,20.7c3.21,6.57,6.66,13.15,8.13,20.32
				c1.4,6.82,1.4,14.68,0.66,21.57c-0.8,7.44-3.16,14.27-2.47,21.91C410.73,333.05,411.43,336,412.52,338.62z"/>
		</g>
		<g>
			<path d="M525.08,241.98c0.01,0.18,0.01,0.36,0.01,0.53c-0.2,11.24-12.06,1.23-15.17-2.37c-4.96-5.74-9.93-11.49-14.89-17.23
				c-3.91-4.52-8.01-9.19-13.52-11.51c-4.59-1.93-9.73-2.02-14.69-1.65c-5.71,0.43-11.6,1.53-16.22,4.9s-7.61,9.54-5.8,14.96
				c2.46,7.39,11.55,9.68,19.18,11.25c9.13,1.88,18.14,4.33,26.97,7.33c19.12,6.5,31.91,25.94,25.42,46.19
				c-4.04,12.6-11.34,24.35-1.03,35.99c3.72,4.2,8.78,7.1,14.19,8.58c13.85,3.78,22.57-13.68,21.01-25.61
				c-0.54-4.17-2.09-8.13-3.63-12.04c-3.71-9.44-10.17-20.03-9.78-30.24c0.44-11.6,2.6-22.33,6.9-33.16
				c1.96-4.94,3.93-9.88,5.89-14.83c1.7-4.28,4.56-8.97,5.32-13.48c0.37-2.18-0.05-4.48-1.17-6.42c-5.46-9.45-17.41-5.87-26.07-4.32
				c-2.06,0.37-4.26,0.86-5.65,2.41c-1.64,1.83-1.67,4.55-1.61,7.01c0.24,9.36,0.5,18.83,3.08,27.83
				C524.34,238.05,525,239.99,525.08,241.98z"/>
		</g>
		<g>
			<path d="M576.87,324.07c-2,0.67-4.08,1.36-6.09,2.45c-18.15,9.84-13.5-9.61-13.56-21.08c-0.04-7.68-4.07-14.11-4.27-21.38
				c-0.26-9.37,5.03-17.88,5.44-27.19c0.26-5.89-1.43-11.67-2.5-17.47c-1.44-7.77-1.74-15.93,0.64-23.47
				c2.38-7.54,7.76-14.39,15.14-17.2c7.39-2.81,16.71-0.82,21.32,5.6c3.73,5.19,3.92,12.01,4.79,18.34
				c2.43,17.65,11.42,34.31,24.83,46.04c4.35-16,0.9-32.93,0.85-49.51s4.97-35.33,19.73-42.88c7.88-4.03,17.14-4.08,25.99-3.67
				c-0.31,13.09-10.39,23.86-13.69,36.53c-2.83,10.89-0.47,22.34,0.46,33.56c0.78,9.42,0.51,18.87-0.05,28.29
				c-0.44,7.35,0.66,15.56-3.51,21.91c-0.3,0.46-3.34,6.02-2.99,5.86c-9.19,4.38-19.76,6.23-29.71,4.1
				c-9.95-2.14-19.15-8.52-23.68-17.63c-1.62-3.26-2.63-6.78-3.63-10.29c-1.02-3.59-2.06-7.18-3.08-10.77
				c-0.78-2.72-0.88-6.75-2.37-9.09c-1-1.56-2.96-2.6-4.75-2.1c-0.08,10.65,1.08,21.35,2.26,31.94c1.07,9.31,5.3,20.25,2.91,29.52
				C585.67,320.99,581.5,322.51,576.87,324.07z"/>
		</g>
		<g>
			<path d="M78.78,560.68c-4.01,2.55-7.9,6.14-9.9,11.5c-2.41,6.46-1.56,14.59,1.38,20.63c2.21,4.53,6.21,9.49,10.55,11.33
				c4.12,1.74,9.7,0.56,14.03-0.16c9.76-1.6,19.51-5.7,26.55-13.94c7.66-8.97,11.11-21.26,16.25-32.1c2.67-5.63,6.6-9.6,9.62-14.73
				c3.52-6.01,6.2-13.1,9.75-19.27c5.72-9.94,10.56-20.55,14.5-31.57c4.06-11.33,6.14-22.97,9.59-34.48
				c1.07-3.56,2.03-7.89-0.07-10.78c-1.62-2.24-4.45-2.64-6.97-2.53c-3.66,0.16-7.28,1.03-10.79,2.24
				c-3.96,1.37-7.88,3.2-11.08,6.22c-5.84,5.5-8.4,13.86-9.88,21.54c-1.7,8.85-3.96,17.36-7.7,25.64c-2.12,4.68-5.05,9.6-9.95,11.13
				c-1.72,0.54-3.69,0.57-5.23-0.37c-5.31-3.25,5.96-36.12-3.93-34.62c-3.73,0.57-7.1,2.45-10.39,4.3
				c-4.31,2.43-8.62,4.85-12.76,7.57c-4.91,3.22-9.94,7.47-10.67,13.3c-0.58,4.65,1.69,8.89,2.89,13.22
				c1.27,4.59,2.76,9.11,4.46,13.55c2.41,6.28,5.89,13.02,12.26,15.18c6.44,2.19,11.05,3.19,9.65,11.39
				c-0.92,5.38-3.23,10.52-6.66,14.77c-0.53,0.66-1.1,1.31-1.81,1.75c-0.96,0.6-2.12,0.79-3.25,0.91c-2.31,0.25-4.69,0.26-6.91-0.44
				c-4.1-1.29-5.85-4.89-6.43-8.92c-0.3-2.07,0.1-2.4-1.31-3.11C82.52,558.8,80.71,559.44,78.78,560.68z"/>
		</g>
		<g>
			<path d="M249.4,479.97c2.03-7.47,3.95-15.05,4.7-22.82c0.62-6.42,0.46-12.66-2.03-18.69c-2.43-5.88-4.38-11.2-3.94-17.71
				c0.17-2.58,0.6-5.41-0.84-7.56c-1.51-2.26-4.64-2.9-7.31-2.36c-2.66,0.53-5.03,2-7.46,3.2c-3.57,1.77-7.41,3.02-11.34,3.71
				c-4.83,0.84-9.86,0.84-14.42,2.64c-5.01,1.99-8.94,6.29-10.84,11.3c-2.07,5.44-0.66,10.94-0.56,16.58
				c0.13,6.91-0.83,13.84-2.82,20.46c-0.9,2.99-2.35,5.9-3,8.88c-0.67,3.07-1.06,6.08-2.02,9.12c-3.61,11.34-8.47,22.28-14.46,32.56
				c-4.47,7.68-15.87,21.35-10.48,30.66c1.13,1.94,2.91,3.35,4.81,4.38c8.24,4.5,18.11,2.53,27.14,0.46
				c11.17-2.56,22.94-5.45,31.3-13.86c7.64-7.69,11.27-18.85,14.51-29.58C243.51,500.93,246.54,490.48,249.4,479.97z"/>
		</g>
		<g>
			<path d="M290.91,426.7c0-1.12,0.29-2.36,0.52-3.44c1.58-7.19-1.92-11.85-9.1-14.16c-3.82-1.23-7.91-1.32-11.91-1.13
				c-5.08,0.24-10.73,1.24-13.74,5.34c-2.55,3.48-2.42,8.31-1.06,12.4c1.36,4.09,3.78,7.73,5.63,11.63
				c10.97,23.2-4.13,50.48-5.34,74.33c-0.29,5.65-0.14,12.28,4.41,15.65c1.89,1.4,4.25,1.97,6.56,2.38
				c4.04,0.73,8.15,1.09,12.26,1.08c1.64,0,3.33-0.08,4.84-0.73c1.35-0.58,2.46-1.59,3.58-2.54c6.05-5.06,13.32-8.66,21.01-10.4
				c3.7-0.84,7.62-1.29,10.82-3.33c5.17-3.29,7.13-9.76,8.71-15.68c8.7-32.59,18.65-63.98,33.84-94.35
				c1.62-4.28,3.13-8.98,2.02-13.45c-1.13-4.51-4.82-7.84-8.85-9.41c-9.41-3.68-20.24,1.2-26.99,9.27
				c-6.75,8.07-10.21,18.74-13,29.24c-4.74,17.82-8.08,36.09-9.97,54.53c-0.31,3.05-0.74,6.43-2.91,8.37
				c-2.91,2.6-7.6,1.02-9.89-2.24c-2.29-3.26-2.78-7.59-3.06-11.69C288.36,454.48,288.9,440.46,290.91,426.7z"/>
		</g>
		<g>
			<path d="M424,373.96c-0.04-2.11-0.08-4.27-0.76-6.22c-0.85-2.45-2.63-4.31-4.51-5.77c-4.68-3.65-11.02-5.31-15.9-2.05
				c-4.65,3.11-6.75,9.02-10.19,13.24c-2.69,3.31-7.12,5.73-9.33,9.33c-2.7,4.43-1.69,9.69-4.98,14.19
				c-3.22,4.41-7.86,7.55-11.26,11.81c-5.01,6.29-7.13,14.79-5.65,22.7c0.21,1.12,0.51,2.27,1.22,3.16c1.21,1.5,3.28,1.93,5.17,2.29
				c5.26,1.02,10.45,2.39,15.53,4.09c4.98,1.66,10.14,3.87,13.1,8.2c2.2,3.21,2.91,7.24,2.75,11.12
				c-0.21,5.27-2.04,10.61-5.78,14.33c-3.74,3.72-9.53,5.53-14.52,3.82c-5.1-1.75-8.49-6.68-10.33-11.75s-2.51-10.5-4.24-15.61
				c-0.64-1.88-1.74-3.98-3.7-4.26c-0.85-0.12-1.7,0.13-2.49,0.47c-6.73,2.9-9.23,10.98-10.96,18.11
				c-1.72,7.09-3.44,14.18-5.16,21.28c-1.08,4.47-2.1,9.47,0.21,13.45c2.89,4.98,9.51,6.03,15.24,6.54
				c14.95,1.34,28.92,5.09,42.09-3.87c11.55-7.86,20.97-19.97,26.6-34.18c2.75-6.95,4.59-15.07,2.16-22.18
				c-1.87-5.46-5.93-9.39-9.84-13.07c-6.38-6.02-12.76-12.03-19.14-18.05c-1.93-1.82-3.95-3.78-4.8-6.51s0.04-6.42,2.41-7.25
				c2.62-0.91,5,1.93,6.7,4.44c3.38,5,7.19,10.16,12.41,11.96c0.85,0.29,1.77,0.49,2.6,0.13c0.91-0.39,1.53-1.36,2.05-2.3
				c4.42-8,4.61-16.7,4.04-25.83c-0.06-0.88-0.01-1.77,0-2.66C424.81,382.69,424.07,378.36,424,373.96z"/>
		</g>
		<g>
			<path d="M484.91,360.71c0.09-1.01,0.18-2.02,0.25-3.02c0.46-6.82-0.5-14.55-5.84-18.83c-3.28-2.63-7.71-3.46-11.91-3.29
				c-17.97,0.72-26.92,16.07-29.04,32.31c-2.13,16.39-1.12,42.35,13.01,53.3c6.89,5.34,16.85,7.01,21.53,14.36
				c2.36,3.7,2.91,8.25,3.14,12.63c0.08,1.59,0.1,3.28-0.71,4.65c-4.12,6.97-16.98-6.49-19.69-9.37
				c-4.04-4.28-8.09-8.57-12.13-12.85c-4-4.23-9.45-8.86-14.93-6.91c-0.57,0.2-1.13,0.49-1.5,0.96c-0.37,0.47-0.53,1.08-0.57,1.68
				c-0.32,4.08,3.47,7.11,5.91,10.4c4.89,6.6,4.64,15.51,5.16,23.71c0.38,6.03,0.64,12.34,5.48,16.26
				c4.61,3.73,10.57,4.85,16.35,5.12c18.94,0.89,46.6-8.48,48.02-31.05c0.73-11.66-7.28-23.15-16.72-29.16
				c-12.98-8.26-28.15-12.89-34.6-28.06c-1.43-3.36-1.55-7.72-4.64-9.66c-0.66-0.42-1.44-0.69-1.96-1.27
				c-1.31-1.44-0.33-3.85,1.18-5.08c2.29-1.86,5.48-2.3,8.39-1.81c3.51,0.58,7.22,3.11,7.17,6.66c-0.01,0.87-0.25,1.77,0.03,2.59
				c0.57,1.73,2.83,2.04,4.4,2.96c3.53,2.06,3.43,7.36,6.19,10.31c3.6,3.86,9.05,6.68,14.29,7.2c0.72,0.07,1.48,0.1,2.14-0.19
				c1.36-0.58,1.91-2.23,2.03-3.7c0.7-8.6-7.32-15.27-9.95-23.49C483.58,372.5,484.36,366.57,484.91,360.71z"/>
		</g>
		<g>
			<path d="M583.57,334.99c-0.75-2.54-2.93-4.32-7.24-4.2c-14.28,0.39-23.5,16.48-37.59,18.74c-8.62,1.38-17.24-2.81-24.03-8.21
				c-2.37-1.88-4.71-3.98-7.64-4.8c-5.8-1.62-11.98,2.63-14.33,8.06c-2.35,5.43-1.78,11.63-0.77,17.45
				c0.89,5.16,0.86,10.64,1.82,15.7c0.76,4.03,3.55,7.64,5.28,11.37c0.95,2.05,1.67,4.2,2.39,6.34c2.98,8.88,6.87,17.39,10.53,26
				c1.73,4.07,3.89,8.09,4.1,12.52c0.21,4.41,1.82,7.97,1.07,12.38c-0.57,3.34-1.52,6.63-2.8,9.77c-1.16,2.82-2.49,6-2.15,9.12
				c0.26,2.4,1.94,4.83,4.34,5.12c0.98,0.12,1.96-0.12,2.92-0.36c1.57-0.39,3.13-0.79,4.7-1.18c5.94-1.49,9.48-6.7,13.67-10.73
				c5.19-5.01,11.62-8.72,18.55-10.71c4.38-1.26,9.07-1.9,12.84-4.45c4.57-3.09,6.99-8.4,10.38-12.74c1.87-2.39,4.07-4.51,5.79-7.01
				c1.72-2.5,2.95-5.51,2.53-8.51c-1.57-11.24-20.63-6.05-26.71-2.68c-6.71,3.73-12.04,9.43-16.66,15.48
				c-1.4,1.83-3.47,3.94-5.66,3.13c-1.32-0.49-2.02-1.89-2.56-3.17c-2.27-5.43-3.96-11.09-5.04-16.86c-0.49-2.64-0.55-5.96,1.81-7.3
				c1.45-0.83,3.26-0.53,4.94-0.5c4.76,0.08,9.47-2.42,12-6.37c2.53-3.94,2.79-9.2,0.66-13.37c-0.61-1.2-1.45-2.35-2.67-2.95
				c-1.33-0.65-2.9-0.56-4.37-0.33c-6.08,0.93-11.81,3.87-16.05,8.22c-2.84,2.91-6.33,6.83-10.18,5.38
				c-3.38-1.27-3.88-5.67-3.83-9.21c0.09-5.95,2.32-9.41,8.4-11.24c3.48-1.05,7.17-1.22,10.77-1.76
				c13.07-1.97,23.09-9.6,34.61-15.14c4.35-2.09,8.7-4.43,11.98-7.97C582.46,344.61,584.71,338.9,583.57,334.99z"/>
		</g>
		<g>
			<path d="M636.89,316.37c-7.72,0.02-15.73-3.73-23.82-3.72c-29.02,0.01-26.27,36.49-27.12,51.67c-0.6,10.75-1.05,22.07,5.15,31.64
				c3.45,5.32,9.99,11.31,9.36,17.71c-0.67,6.8-5.3,13.05-5.44,20.37c-0.02,0.89,0.01,1.83,0.54,2.62c0.59,0.86,1.7,1.42,2.83,1.8
				c8.75,2.95,18.22-2.42,24.92-7.79c6.35-5.09,12.71-11.54,11.39-18.65c-0.79-4.26-4.24-7.85-6.67-11.7s-3.7-8.83-0.39-12.23
				c3.02-3.11,8.51-3.62,13.19-4.87c8.8-2.34,15.99-8.22,18.72-15.29c0.81-2.09,0.97-4.82-1.34-6.01c-1.8-0.92-4.15-0.4-6.18,0.13
				c-7.96,2.08-30.43,10.25-35.37,3.48c-5.18-7.1,1.52-18.31,9.77-21.69c6.42-2.63,14.02-2.39,21.08-3.62
				c10.85-1.88,20.59-7.5,26.24-15.13c5.64-7.62,7.1-17.14,3.93-25.62c-0.33-0.89-0.77-1.83-1.72-2.38
				c-0.89-0.51-2.06-0.56-3.16-0.54c-6.95,0.17-13.7,3.11-17.65,7.67c-2.24,2.59-3.64,5.66-6.39,7.92
				C644.89,315.31,640.93,316.36,636.89,316.37z"/>
		</g>
	</g>
	<g>
		<g>
			<path class="st1" d="M143.16,330.09c1.32-0.75,2.64-1.52,3.94-2.33c5.65-3.49,17.92-10.98,15.35-19.28
				c-0.32-1.02-0.85-1.96-1.47-2.83c-1.67-2.36-4.08-4.31-6.91-4.93c-1.57-0.34-3.19-0.27-4.79-0.2c-5.85,0.27-11.33,0.01-16.7,2.3
				c-5.69,2.43-11.6,4.44-17.38,6.65c-11.58,4.43-23.16,8.88-34.75,13.3c-5.13,1.96-10.53,4.15-14.21,9.54
				c-7.03,10.31-6.83,30.47-3.09,41.82c5.61,17.02,16.14,31.13,10.82,50.11c-2.67,9.53-9.02,17.65-12.07,27.06
				c-2.43,7.52-2.6,15.73-0.59,23.36c2.48,9.42,5.24,9.66,14.25,7.17c9.57-2.64,18.29-7.64,26.27-13.46c3.44-2.5,8.31-5.34,10.5-9
				c2.45-4.08,3.51-7.02,7.55-10.27c8.86-7.14,18.09-14.46,29.11-17.29c4.82-1.23,9.92-1.59,14.41-3.71
				c5.29-2.5,9.24-7.25,11.86-12.48s4.04-10.96,5.45-16.63c0.44-1.79,0.89-3.65,0.57-5.47c-0.35-1.95-1.55-3.63-2.74-5.21
				c-2.93-3.9-6.21-7.85-10.73-9.68c-4.73-1.92-10.26-1.18-14.8,1.15c-14.13,7.27-21.83,25.46-31.59,37.25
				c-5.47,6.61-14.58,19.45-23.69,20.49c-5.17,0.59-11.02-4.21-11.28-11.49c-0.15-4.17,1.52-8.04,3.46-11.2
				c7.37-12.01,19.56-18.18,24.23-32.61c-4.35-6.35-11.54,4.01-17.76,2.83c-5.85-1.11-7.92-12.72-4.93-19.88s8.85-10.72,14.32-13.84
				C118.23,344.26,130.7,337.18,143.16,330.09z"/>
		</g>
		<g>
			<path class="st1" d="M174.73,286.82c-7.07,5.9-8.68,15.2-6.92,23.94c0.65,3.26,2.03,6.32,3.52,9.29
				c2.61,5.21,5.61,10.23,8.96,15.01c2.04,2.91,4.21,5.74,6.03,8.79c1.59,2.67,2.32,6.09,4.51,8.27c4.79,4.79,9.66,8.97,10.59,16.18
				c1.2,9.3-5.22,17.84-6.52,27.12c-0.43,3.06-0.17,6.51,1.98,8.74c1.92,1.99,4.89,2.53,7.65,2.66
				c24.85,1.17,38.53-20.56,45.36-41.35c2.28-6.93,4.37-13.94,5.6-21.12c1.92-11.26,1.69-22.81,3.98-34.01
				c1.44-7.04,3.86-13.87,6.63-20.52c2.53-6.08,7.88-17.73,2.55-23.83c-5.63-6.44-18.69-2.27-25.38-0.12
				c-6.72,2.16-14.34,5.21-16.82,12.63c-1.42,4.24-0.77,8.97-0.11,13.45c1.33,8.93,3.45,17.74,4.81,26.68
				c0.49,3.2,4.98,28.29-4.41,22.47c-1.71-1.06-2.76-2.89-3.74-4.65c-8.05-14.42-16.24-29.26-18.55-45.61
				c-0.25-1.79-0.46-3.67-1.45-5.18c-1.16-1.78-3.21-2.76-5.23-3.4C189.72,279.71,180.84,281.71,174.73,286.82z"/>
		</g>
		<g>
			<path class="st1" d="M390.32,329.03c7.85,10.4-4.61,23.6-12.46,29.56c-3.99,3.03-9.01,5.02-13.97,4.36
				c-2.21-0.29-4.33-1.09-6.54-1.35c-3.27-0.38-6.56,0.43-9.71,1.41c-7.91,2.46-15.47,6.04-22.4,10.58
				c-3.84,2.52-7.5,5.35-11.64,7.35c-3.51,1.7-7.33,2.75-11.22,3.12c-3.34,0.32-7.21-1.05-10.36-0.53
				c-3.11,0.51-6.17,2.82-9.52,3.39c-3.15,0.53-6.38,0.57-9.56,0.54c-3.72-0.04-8.07-0.55-9.97-3.75
				c-2.46-4.17,1.08-9.14,2.59-13.74c2.17-6.61-0.04-13.74-1.23-20.6c-2.08-12.03-0.79-24.72,4.26-35.88
				c2.24-4.95,5.82-8.83,7.59-14.09c1.85-5.5,2.52-11.34,3.15-17.08c0.27-2.44,0.53-4.95-0.06-7.33c-1.08-4.35-4.91-7.87-5.04-12.35
				c-0.02-0.7,0.07-1.45,0.51-2c0.41-0.52,1.05-0.79,1.68-1c4.76-1.6,9.98-1.11,14.87-2.23c11.02-2.54,18.3-13.01,29.19-15.44
				c14.09-3.14,28.38-6.18,42.52-9.47c3.44-0.8,7.2-1.55,10.31,0.35c4.84,2.96,5.62,11.28,2.95,16.87
				c-4.11,8.59-16.77,15.8-25.61,18.35c-10.7,3.09-22.66,0.65-32.86,5.13c-7.18,3.15-12.77,9.71-14.72,17.3
				c-1.11,4.29-0.93,9.29,2.05,12.57c2.65,2.91,6.99,3.78,10.88,3.17c4-0.63,16.22-9.02,18.12-1.21c0,8.36-12.62,12.48-18.8,16.18
				c-3.93,2.35-7.9,4.73-11.1,7.99s-5.61,7.56-5.65,12.13c-0.04,4.57,2.72,9.3,7.09,10.66c1.27,0.39,2.62,0.5,3.95,0.52
				c9.35,0.12,19.2-4.12,27.41-8.19c10.46-5.18,20.92-10.36,31.37-15.53C375.61,325.19,385.13,322.14,390.32,329.03z"/>
		</g>
		<g>
			<path class="st1" d="M402.2,334.49c2.02,4.88,5.73,9.09,10.99,10.44c4.87,1.25,13.61,0.65,17.19-3.07
				c2.03-2.11,3.38-4.77,5.14-7.11c7.35-9.76,21.07-12.62,33.18-10.97c4.66,0.64,9.37,1.83,14,1.04
				c10.31-1.75,13.57-14.36,12.48-23.22c-0.87-7.1-5.4-14.12-12.26-16.14c-4.1-1.21-8.53-0.56-12.66,0.54
				c-15.37,4.06-28.83,14.1-38.37,26.82c-0.77,1.03-1.64,2.16-2.91,2.41c-1.64,0.32-3.2-1.08-3.72-2.66
				c-0.52-1.58-0.29-3.3-0.16-4.96c0.91-11.09-2.56-22.03-3.78-33.09c-1.47-13.36,0.35-26.86-0.05-40.3
				c-0.16-5.56-1.18-11.92-5.91-14.84c-3.49-2.15-7.93-1.7-12-1.18c-11.61,1.49-17.41,11.93-16.46,23.11
				c0.62,7.29,3.69,14.12,6.9,20.7c3.21,6.57,6.66,13.15,8.13,20.32c1.4,6.82,1.4,14.68,0.66,21.57c-0.8,7.44-3.16,14.27-2.47,21.91
				C400.41,328.92,401.11,331.87,402.2,334.49z"/>
		</g>
		<g>
			<path class="st1" d="M514.76,237.85c0.01,0.18,0.01,0.36,0.01,0.53c-0.2,11.24-12.06,1.23-15.17-2.37
				c-4.96-5.74-9.93-11.49-14.89-17.23c-3.91-4.52-8.01-9.19-13.52-11.51c-4.59-1.93-9.73-2.02-14.69-1.65
				c-5.71,0.43-11.6,1.53-16.22,4.9c-4.62,3.38-7.61,9.54-5.8,14.96c2.46,7.39,11.55,9.68,19.18,11.25
				c9.13,1.88,18.14,4.33,26.97,7.33c19.12,6.5,31.91,25.94,25.42,46.19c-4.04,12.6-11.34,24.35-1.03,35.99
				c3.72,4.2,8.78,7.1,14.19,8.58c13.85,3.78,22.57-13.68,21.01-25.61c-0.54-4.17-2.09-8.13-3.63-12.04
				c-3.71-9.44-10.17-20.03-9.78-30.24c0.44-11.6,2.6-22.33,6.9-33.16c1.96-4.94,3.93-9.88,5.89-14.83
				c1.7-4.28,4.56-8.97,5.32-13.48c0.37-2.18-0.05-4.48-1.17-6.42c-5.46-9.45-17.41-5.87-26.07-4.32c-2.06,0.37-4.26,0.86-5.65,2.41
				c-1.64,1.83-1.67,4.55-1.61,7.01c0.24,9.36,0.5,18.83,3.08,27.83C514.02,233.91,514.68,235.85,514.76,237.85z"/>
		</g>
		<g>
			<path class="st1" d="M566.55,319.94c-2,0.67-4.08,1.36-6.09,2.45c-18.15,9.84-13.5-9.61-13.56-21.08
				c-0.04-7.68-4.07-14.11-4.27-21.38c-0.26-9.37,5.03-17.88,5.44-27.19c0.26-5.89-1.43-11.67-2.5-17.47
				c-1.44-7.77-1.74-15.93,0.64-23.47s7.76-14.39,15.14-17.2s16.71-0.82,21.32,5.6c3.73,5.19,3.92,12.01,4.79,18.34
				c2.43,17.65,11.42,34.31,24.83,46.04c4.35-16,0.9-32.93,0.85-49.51s4.97-35.33,19.73-42.88c7.88-4.03,17.14-4.08,25.99-3.67
				c-0.31,13.09-10.39,23.86-13.69,36.53c-2.83,10.89-0.47,22.34,0.46,33.56c0.78,9.42,0.51,18.87-0.05,28.29
				c-0.44,7.35,0.66,15.56-3.51,21.91c-0.3,0.46-3.34,6.02-2.99,5.86c-9.19,4.38-19.76,6.23-29.71,4.1
				c-9.95-2.14-19.15-8.52-23.68-17.63c-1.62-3.26-2.63-6.78-3.63-10.29c-1.02-3.59-2.06-7.18-3.08-10.77
				c-0.78-2.72-0.88-6.75-2.37-9.09c-1-1.56-2.96-2.6-4.75-2.1c-0.08,10.65,1.08,21.35,2.26,31.94c1.07,9.31,5.3,20.25,2.91,29.52
				C575.35,316.85,571.18,318.38,566.55,319.94z"/>
		</g>
		<g>
			<path class="st1" d="M68.45,556.54c-4.01,2.55-7.9,6.14-9.9,11.5c-2.41,6.46-1.56,14.59,1.38,20.63
				c2.21,4.53,6.21,9.49,10.55,11.33c4.12,1.74,9.7,0.56,14.03-0.16c9.76-1.6,19.51-5.7,26.55-13.94
				c7.66-8.97,11.11-21.26,16.25-32.1c2.67-5.63,6.6-9.6,9.62-14.73c3.52-6.01,6.2-13.1,9.75-19.27
				c5.72-9.94,10.56-20.55,14.5-31.57c4.06-11.33,6.14-22.97,9.59-34.48c1.07-3.56,2.03-7.89-0.07-10.78
				c-1.62-2.24-4.45-2.64-6.97-2.53c-3.66,0.16-7.28,1.03-10.79,2.24c-3.96,1.37-7.88,3.2-11.08,6.22
				c-5.84,5.5-8.4,13.86-9.88,21.54c-1.7,8.85-3.96,17.36-7.7,25.64c-2.12,4.68-5.05,9.6-9.95,11.13c-1.72,0.54-3.69,0.57-5.23-0.37
				c-5.31-3.25,5.96-36.12-3.93-34.62c-3.73,0.57-7.1,2.45-10.39,4.3c-4.31,2.43-8.62,4.85-12.76,7.57
				c-4.91,3.22-9.94,7.47-10.67,13.3c-0.58,4.65,1.69,8.89,2.89,13.22c1.27,4.59,2.76,9.11,4.46,13.55
				c2.41,6.28,5.89,13.02,12.26,15.18c6.44,2.19,11.05,3.19,9.65,11.39c-0.92,5.38-3.23,10.52-6.66,14.77
				c-0.53,0.66-1.1,1.31-1.81,1.75c-0.96,0.6-2.12,0.79-3.25,0.91c-2.31,0.25-4.69,0.26-6.91-0.44c-4.1-1.29-5.85-4.89-6.43-8.92
				c-0.3-2.07,0.1-2.4-1.31-3.11C72.2,554.66,70.39,555.31,68.45,556.54z"/>
		</g>
		<g>
			<path class="st1" d="M239.08,475.84c2.03-7.47,3.95-15.05,4.7-22.82c0.62-6.42,0.46-12.66-2.03-18.69
				c-2.43-5.88-4.38-11.2-3.94-17.71c0.17-2.58,0.6-5.41-0.84-7.56c-1.51-2.26-4.64-2.9-7.31-2.36c-2.66,0.53-5.03,2-7.46,3.2
				c-3.57,1.77-7.41,3.02-11.34,3.71c-4.83,0.84-9.86,0.84-14.42,2.64c-5.01,1.99-8.94,6.29-10.84,11.3
				c-2.07,5.44-0.66,10.94-0.56,16.58c0.13,6.91-0.83,13.84-2.82,20.46c-0.9,2.99-2.35,5.9-3,8.88c-0.67,3.07-1.06,6.08-2.02,9.12
				c-3.61,11.34-8.47,22.28-14.46,32.56c-4.47,7.68-15.87,21.35-10.48,30.66c1.13,1.94,2.91,3.35,4.81,4.38
				c8.24,4.5,18.11,2.53,27.14,0.46c11.17-2.56,22.94-5.45,31.3-13.86c7.64-7.69,11.27-18.85,14.51-29.58
				C233.19,496.79,236.22,486.34,239.08,475.84z"/>
		</g>
		<g>
			<path class="st1" d="M280.59,422.56c0-1.12,0.29-2.36,0.52-3.44c1.58-7.19-1.92-11.85-9.1-14.16c-3.82-1.23-7.91-1.32-11.91-1.13
				c-5.08,0.24-10.73,1.24-13.74,5.34c-2.55,3.48-2.42,8.31-1.06,12.4c1.36,4.09,3.78,7.73,5.63,11.63
				c10.97,23.2-4.13,50.48-5.34,74.33c-0.29,5.65-0.14,12.28,4.41,15.65c1.89,1.4,4.25,1.97,6.56,2.38
				c4.04,0.73,8.15,1.09,12.26,1.08c1.64,0,3.33-0.08,4.84-0.73c1.35-0.58,2.46-1.59,3.58-2.54c6.05-5.06,13.32-8.66,21.01-10.4
				c3.7-0.84,7.62-1.29,10.82-3.33c5.17-3.29,7.13-9.76,8.71-15.68c8.7-32.59,18.65-63.98,33.84-94.35
				c1.62-4.28,3.13-8.98,2.02-13.45c-1.13-4.51-4.82-7.84-8.85-9.41c-9.41-3.68-20.24,1.2-26.99,9.27
				c-6.75,8.07-10.21,18.74-13,29.24c-4.74,17.82-8.08,36.09-9.97,54.53c-0.31,3.05-0.74,6.43-2.91,8.37
				c-2.91,2.6-7.6,1.02-9.89-2.24c-2.29-3.26-2.78-7.59-3.06-11.69C278.04,450.35,278.58,436.33,280.59,422.56z"/>
		</g>
		<g>
			<path class="st1" d="M413.68,369.83c-0.04-2.11-0.08-4.27-0.76-6.22c-0.85-2.45-2.63-4.31-4.51-5.77
				c-4.68-3.65-11.02-5.31-15.9-2.05c-4.65,3.11-6.75,9.02-10.19,13.24c-2.69,3.31-7.12,5.73-9.33,9.33
				c-2.7,4.43-1.69,9.69-4.98,14.19c-3.22,4.41-7.86,7.55-11.26,11.81c-5.01,6.29-7.13,14.79-5.65,22.7
				c0.21,1.12,0.51,2.27,1.22,3.16c1.21,1.5,3.28,1.93,5.17,2.29c5.26,1.02,10.45,2.39,15.53,4.09c4.98,1.66,10.14,3.87,13.1,8.2
				c2.2,3.21,2.91,7.24,2.75,11.12c-0.21,5.27-2.04,10.61-5.78,14.33c-3.74,3.72-9.53,5.53-14.52,3.82
				c-5.1-1.75-8.49-6.68-10.33-11.75s-2.51-10.5-4.24-15.61c-0.64-1.88-1.74-3.98-3.7-4.26c-0.85-0.12-1.7,0.13-2.49,0.47
				c-6.73,2.9-9.23,10.98-10.96,18.11c-1.72,7.09-3.44,14.18-5.16,21.28c-1.08,4.47-2.1,9.47,0.21,13.45
				c2.89,4.98,9.51,6.03,15.24,6.54c14.95,1.34,28.92,5.09,42.09-3.87c11.55-7.86,20.97-19.97,26.6-34.18
				c2.75-6.95,4.59-15.07,2.16-22.18c-1.87-5.46-5.93-9.39-9.84-13.07c-6.38-6.02-12.76-12.03-19.14-18.05
				c-1.93-1.82-3.95-3.78-4.8-6.51c-0.85-2.73,0.04-6.42,2.41-7.25c2.62-0.91,5,1.93,6.7,4.44c3.38,5,7.19,10.16,12.41,11.96
				c0.85,0.29,1.77,0.49,2.6,0.13c0.91-0.39,1.53-1.36,2.05-2.3c4.42-8,4.61-16.7,4.04-25.83c-0.06-0.88-0.01-1.77,0-2.66
				C414.49,378.56,413.75,374.22,413.68,369.83z"/>
		</g>
		<g>
			<path class="st1" d="M474.59,356.57c0.09-1.01,0.18-2.02,0.25-3.02c0.46-6.82-0.5-14.55-5.84-18.83
				c-3.28-2.63-7.71-3.46-11.91-3.29c-17.97,0.72-26.92,16.07-29.04,32.31c-2.13,16.39-1.12,42.35,13.01,53.3
				c6.89,5.34,16.85,7.01,21.53,14.36c2.36,3.7,2.91,8.25,3.14,12.63c0.08,1.59,0.1,3.28-0.71,4.65
				c-4.12,6.97-16.98-6.49-19.69-9.37c-4.04-4.28-8.09-8.57-12.13-12.85c-4-4.23-9.45-8.86-14.93-6.91c-0.57,0.2-1.13,0.49-1.5,0.96
				c-0.37,0.47-0.53,1.08-0.57,1.68c-0.32,4.08,3.47,7.11,5.91,10.4c4.89,6.6,4.64,15.51,5.16,23.71
				c0.38,6.03,0.64,12.34,5.48,16.26c4.61,3.73,10.57,4.85,16.35,5.12c18.94,0.89,46.6-8.48,48.02-31.05
				c0.73-11.66-7.28-23.15-16.72-29.16c-12.98-8.26-28.15-12.89-34.6-28.06c-1.43-3.36-1.55-7.72-4.64-9.66
				c-0.66-0.42-1.44-0.69-1.96-1.27c-1.31-1.44-0.33-3.85,1.18-5.08c2.29-1.86,5.48-2.3,8.39-1.81c3.51,0.58,7.22,3.11,7.17,6.66
				c-0.01,0.87-0.25,1.77,0.03,2.59c0.57,1.73,2.83,2.04,4.4,2.96c3.53,2.06,3.43,7.36,6.19,10.31c3.6,3.86,9.05,6.68,14.29,7.2
				c0.72,0.07,1.48,0.1,2.14-0.19c1.36-0.58,1.91-2.23,2.03-3.7c0.7-8.6-7.32-15.27-9.95-23.49
				C473.26,368.37,474.04,362.43,474.59,356.57z"/>
		</g>
		<g>
			<path class="st1" d="M573.24,330.86c-0.75-2.54-2.93-4.32-7.24-4.2c-14.28,0.39-23.5,16.48-37.59,18.74
				c-8.62,1.38-17.24-2.81-24.03-8.21c-2.37-1.88-4.71-3.98-7.64-4.8c-5.8-1.62-11.98,2.63-14.33,8.06
				c-2.35,5.43-1.78,11.63-0.77,17.45c0.89,5.16,0.86,10.64,1.82,15.7c0.76,4.03,3.55,7.64,5.28,11.37c0.95,2.05,1.67,4.2,2.39,6.34
				c2.98,8.88,6.87,17.39,10.53,26c1.73,4.07,3.89,8.09,4.1,12.52c0.21,4.41,1.82,7.97,1.07,12.38c-0.57,3.34-1.52,6.63-2.8,9.77
				c-1.16,2.82-2.49,6-2.15,9.12c0.26,2.4,1.94,4.83,4.34,5.12c0.98,0.12,1.96-0.12,2.92-0.36c1.57-0.39,3.13-0.79,4.7-1.18
				c5.94-1.49,9.48-6.7,13.67-10.73c5.19-5.01,11.62-8.72,18.55-10.71c4.38-1.26,9.07-1.9,12.84-4.45
				c4.57-3.09,6.99-8.4,10.38-12.74c1.87-2.39,4.07-4.51,5.79-7.01c1.72-2.5,2.95-5.51,2.53-8.51c-1.57-11.24-20.63-6.05-26.71-2.68
				c-6.71,3.73-12.04,9.43-16.66,15.48c-1.4,1.83-3.47,3.94-5.66,3.13c-1.33-0.49-2.02-1.89-2.56-3.17
				c-2.27-5.43-3.96-11.09-5.04-16.86c-0.49-2.64-0.55-5.96,1.81-7.3c1.45-0.83,3.26-0.53,4.94-0.5c4.76,0.08,9.47-2.42,12-6.37
				c2.53-3.94,2.79-9.2,0.66-13.37c-0.61-1.2-1.45-2.35-2.67-2.95c-1.33-0.65-2.9-0.56-4.37-0.33c-6.08,0.93-11.81,3.87-16.05,8.22
				c-2.84,2.91-6.33,6.83-10.18,5.38c-3.38-1.27-3.88-5.67-3.83-9.21c0.09-5.95,2.32-9.41,8.4-11.24c3.48-1.05,7.17-1.22,10.77-1.76
				c13.07-1.97,23.09-9.6,34.61-15.14c4.35-2.09,8.7-4.43,11.98-7.97C572.14,340.47,574.39,334.77,573.24,330.86z"/>
		</g>
		<g>
			<path class="st1" d="M626.56,312.23c-7.72,0.02-15.73-3.73-23.82-3.72c-29.02,0.01-26.27,36.49-27.12,51.67
				c-0.6,10.75-1.05,22.07,5.15,31.64c3.45,5.32,9.99,11.31,9.36,17.71c-0.67,6.8-5.3,13.05-5.44,20.37
				c-0.02,0.89,0.01,1.83,0.54,2.62c0.59,0.86,1.7,1.42,2.83,1.8c8.75,2.95,18.22-2.42,24.92-7.79
				c6.35-5.09,12.71-11.54,11.39-18.65c-0.79-4.26-4.24-7.85-6.67-11.7c-2.42-3.85-3.7-8.83-0.39-12.23
				c3.02-3.11,8.51-3.62,13.19-4.87c8.8-2.34,15.99-8.22,18.72-15.29c0.81-2.09,0.97-4.82-1.34-6.01c-1.8-0.92-4.15-0.4-6.18,0.13
				c-7.96,2.08-30.43,10.25-35.37,3.48c-5.18-7.1,1.52-18.31,9.77-21.69c6.42-2.63,14.02-2.39,21.08-3.62
				c10.85-1.88,20.59-7.5,26.24-15.13c5.64-7.62,7.1-17.14,3.93-25.62c-0.33-0.89-0.77-1.83-1.72-2.38
				c-0.89-0.51-2.06-0.56-3.16-0.54c-6.95,0.17-13.7,3.11-17.65,7.67c-2.24,2.59-3.64,5.66-6.39,7.92
				C634.57,311.18,630.61,312.22,626.56,312.23z"/>
		</g>
	</g>
	<g>
		<g>
			<path class="st2" d="M129.25,326.04c1.32-0.75,2.64-1.52,3.94-2.33c5.65-3.49,17.92-10.98,15.35-19.28
				c-0.32-1.02-0.85-1.96-1.47-2.83c-1.68-2.36-4.08-4.31-6.91-4.93c-1.57-0.34-3.19-0.27-4.79-0.2c-5.85,0.27-11.33,0.01-16.7,2.3
				c-5.69,2.43-11.6,4.44-17.38,6.65c-11.58,4.43-23.16,8.88-34.75,13.3c-5.13,1.96-10.53,4.15-14.21,9.54
				c-7.03,10.31-6.83,30.47-3.09,41.82c5.61,17.02,16.14,31.13,10.82,50.11c-2.67,9.53-9.02,17.65-12.07,27.06
				c-2.43,7.52-2.6,15.73-0.59,23.36c2.48,9.42,5.24,9.66,14.25,7.17c9.57-2.64,18.29-7.64,26.27-13.46c3.44-2.5,8.31-5.34,10.5-9
				c2.45-4.08,3.51-7.02,7.55-10.27c8.86-7.14,18.09-14.46,29.11-17.29c4.82-1.23,9.92-1.59,14.41-3.71
				c5.29-2.5,9.24-7.25,11.86-12.48c2.62-5.23,4.04-10.96,5.45-16.63c0.44-1.79,0.89-3.65,0.57-5.47c-0.35-1.95-1.55-3.63-2.74-5.21
				c-2.93-3.9-6.21-7.85-10.73-9.68c-4.73-1.92-10.26-1.18-14.8,1.15c-14.13,7.27-21.83,25.46-31.59,37.25
				c-5.47,6.61-14.58,19.45-23.69,20.49c-5.17,0.59-11.02-4.21-11.28-11.49c-0.15-4.17,1.52-8.04,3.46-11.2
				c7.37-12.01,19.56-18.18,24.23-32.61c-4.35-6.35-11.54,4.01-17.76,2.83c-5.85-1.11-7.92-12.72-4.93-19.88
				c2.99-7.16,8.85-10.72,14.32-13.84C104.32,340.21,116.79,333.12,129.25,326.04z"/>
		</g>
		<g>
			<path class="st2" d="M160.82,282.76c-7.07,5.9-8.68,15.2-6.92,23.94c0.65,3.26,2.03,6.32,3.52,9.29
				c2.61,5.21,5.61,10.23,8.96,15.01c2.04,2.91,4.21,5.74,6.03,8.79c1.59,2.67,2.32,6.09,4.51,8.27c4.79,4.79,9.66,8.97,10.59,16.18
				c1.2,9.3-5.22,17.84-6.52,27.12c-0.43,3.06-0.17,6.51,1.98,8.74c1.92,1.99,4.89,2.53,7.65,2.66
				c24.85,1.17,38.53-20.56,45.36-41.35c2.28-6.93,4.37-13.94,5.6-21.12c1.92-11.26,1.69-22.81,3.98-34.01
				c1.44-7.04,3.86-13.87,6.63-20.52c2.53-6.08,7.88-17.73,2.55-23.83c-5.63-6.44-18.69-2.27-25.38-0.12
				c-6.72,2.16-14.34,5.21-16.82,12.63c-1.42,4.24-0.77,8.97-0.11,13.45c1.33,8.93,3.45,17.74,4.81,26.68
				c0.49,3.2,4.98,28.29-4.41,22.47c-1.71-1.06-2.76-2.89-3.74-4.65c-8.05-14.42-16.24-29.26-18.55-45.61
				c-0.25-1.79-0.46-3.67-1.45-5.18c-1.16-1.78-3.21-2.76-5.23-3.4C175.81,275.65,166.93,277.66,160.82,282.76z"/>
		</g>
		<g>
			<path class="st2" d="M376.41,324.97c7.85,10.4-4.61,23.6-12.46,29.56c-3.99,3.03-9.01,5.02-13.97,4.36
				c-2.21-0.29-4.33-1.09-6.54-1.35c-3.27-0.38-6.56,0.43-9.71,1.41c-7.91,2.46-15.47,6.04-22.4,10.58
				c-3.84,2.52-7.5,5.35-11.64,7.35c-3.51,1.7-7.33,2.75-11.22,3.12c-3.34,0.32-7.21-1.05-10.36-0.53
				c-3.11,0.51-6.17,2.82-9.52,3.39c-3.15,0.53-6.38,0.57-9.56,0.54c-3.72-0.04-8.07-0.55-9.97-3.75
				c-2.46-4.17,1.08-9.14,2.59-13.74c2.17-6.61-0.04-13.74-1.23-20.6c-2.08-12.03-0.79-24.72,4.26-35.88
				c2.24-4.95,5.82-8.83,7.59-14.09c1.85-5.5,2.52-11.34,3.15-17.08c0.27-2.44,0.53-4.95-0.06-7.33c-1.08-4.35-4.91-7.87-5.04-12.35
				c-0.02-0.7,0.07-1.45,0.51-2c0.41-0.52,1.05-0.79,1.68-1c4.76-1.6,9.98-1.11,14.87-2.23c11.02-2.54,18.3-13.01,29.19-15.44
				c14.09-3.14,28.38-6.18,42.52-9.47c3.44-0.8,7.2-1.55,10.31,0.35c4.84,2.96,5.62,11.28,2.95,16.87
				c-4.11,8.59-16.77,15.8-25.61,18.35c-10.7,3.09-22.66,0.65-32.86,5.13c-7.18,3.15-12.77,9.71-14.72,17.3
				c-1.11,4.29-0.93,9.29,2.05,12.57c2.65,2.91,6.99,3.78,10.88,3.17c4-0.63,16.22-9.02,18.12-1.21c0,8.36-12.62,12.48-18.8,16.18
				c-3.93,2.35-7.9,4.73-11.1,7.99s-5.61,7.56-5.65,12.13s2.72,9.3,7.09,10.66c1.27,0.39,2.62,0.5,3.95,0.52
				c9.35,0.12,19.2-4.12,27.41-8.19c10.46-5.18,20.92-10.36,31.37-15.53C361.7,321.14,371.22,318.09,376.41,324.97z"/>
		</g>
		<g>
			<path class="st2" d="M388.29,330.43c2.02,4.88,5.73,9.09,10.99,10.44c4.87,1.25,13.61,0.65,17.19-3.07
				c2.03-2.11,3.38-4.77,5.14-7.11c7.35-9.76,21.07-12.62,33.18-10.97c4.66,0.64,9.37,1.83,14,1.04
				c10.31-1.75,13.57-14.36,12.48-23.22c-0.87-7.1-5.4-14.12-12.26-16.14c-4.1-1.21-8.53-0.56-12.66,0.54
				c-15.37,4.06-28.83,14.1-38.37,26.82c-0.77,1.03-1.64,2.16-2.91,2.41c-1.64,0.32-3.2-1.08-3.72-2.66
				c-0.52-1.58-0.29-3.3-0.16-4.96c0.91-11.09-2.56-22.03-3.78-33.09c-1.47-13.36,0.35-26.86-0.05-40.3
				c-0.16-5.56-1.18-11.92-5.91-14.84c-3.49-2.15-7.93-1.7-12-1.18c-11.61,1.49-17.41,11.93-16.46,23.11
				c0.62,7.29,3.69,14.12,6.9,20.7c3.21,6.57,6.66,13.15,8.13,20.32c1.4,6.82,1.4,14.68,0.66,21.57c-0.8,7.44-3.16,14.27-2.47,21.91
				C386.5,324.86,387.2,327.81,388.29,330.43z"/>
		</g>
		<g>
			<path class="st2" d="M500.85,233.79c0.01,0.18,0.01,0.36,0.01,0.53c-0.2,11.24-12.06,1.23-15.17-2.37
				c-4.96-5.74-9.93-11.49-14.89-17.23c-3.91-4.52-8.01-9.19-13.52-11.51c-4.59-1.93-9.73-2.02-14.69-1.65
				c-5.71,0.43-11.6,1.53-16.22,4.9c-4.62,3.38-7.61,9.54-5.8,14.96c2.46,7.39,11.55,9.68,19.18,11.25
				c9.13,1.88,18.14,4.33,26.97,7.33c19.12,6.5,31.91,25.94,25.42,46.19c-4.04,12.6-11.34,24.35-1.03,35.99
				c3.72,4.2,8.78,7.1,14.19,8.58c13.85,3.78,22.57-13.68,21.01-25.61c-0.54-4.17-2.09-8.13-3.63-12.04
				c-3.71-9.44-10.17-20.03-9.78-30.24c0.44-11.6,2.6-22.33,6.9-33.16c1.96-4.94,3.93-9.88,5.89-14.83
				c1.7-4.28,4.56-8.97,5.32-13.48c0.37-2.18-0.05-4.48-1.17-6.42c-5.46-9.45-17.41-5.87-26.07-4.32c-2.06,0.37-4.26,0.86-5.65,2.41
				c-1.64,1.83-1.67,4.55-1.61,7.01c0.24,9.36,0.5,18.83,3.08,27.83C500.11,229.86,500.77,231.8,500.85,233.79z"/>
		</g>
		<g>
			<path class="st2" d="M552.64,315.88c-2,0.67-4.08,1.36-6.09,2.45c-18.15,9.84-13.5-9.61-13.56-21.08
				c-0.04-7.68-4.07-14.11-4.27-21.38c-0.26-9.37,5.03-17.88,5.44-27.19c0.26-5.89-1.43-11.67-2.5-17.47
				c-1.44-7.77-1.74-15.93,0.64-23.47c2.38-7.54,7.76-14.39,15.14-17.2c7.39-2.81,16.71-0.82,21.32,5.6
				c3.73,5.19,3.92,12.01,4.79,18.34c2.43,17.65,11.42,34.31,24.83,46.04c4.35-16,0.9-32.93,0.85-49.51s4.97-35.33,19.73-42.88
				c7.88-4.03,17.14-4.08,25.99-3.67c-0.31,13.09-10.39,23.86-13.69,36.53c-2.83,10.89-0.47,22.34,0.46,33.56
				c0.78,9.42,0.51,18.87-0.05,28.29c-0.44,7.35,0.66,15.56-3.51,21.91c-0.3,0.46-3.34,6.02-2.99,5.86
				c-9.19,4.38-19.76,6.23-29.71,4.1c-9.95-2.14-19.15-8.52-23.68-17.63c-1.62-3.26-2.63-6.78-3.63-10.29
				c-1.02-3.59-2.06-7.18-3.08-10.77c-0.78-2.72-0.88-6.75-2.37-9.09c-1-1.56-2.96-2.6-4.75-2.1c-0.08,10.65,1.08,21.35,2.26,31.94
				c1.07,9.31,5.3,20.25,2.91,29.52C561.44,312.8,557.27,314.32,552.64,315.88z"/>
		</g>
		<g>
			<path class="st2" d="M54.54,552.49c-4.01,2.55-7.9,6.14-9.9,11.5c-2.41,6.46-1.56,14.59,1.38,20.63
				c2.21,4.53,6.21,9.49,10.55,11.33c4.12,1.74,9.7,0.56,14.03-0.16c9.76-1.6,19.51-5.7,26.55-13.94
				c7.66-8.97,11.11-21.26,16.25-32.1c2.67-5.63,6.6-9.6,9.62-14.73c3.52-6.01,6.2-13.1,9.75-19.27
				c5.72-9.94,10.56-20.55,14.5-31.57c4.06-11.33,6.14-22.97,9.59-34.48c1.07-3.56,2.03-7.89-0.07-10.78
				c-1.62-2.24-4.45-2.64-6.97-2.53c-3.66,0.16-7.28,1.03-10.79,2.24c-3.96,1.37-7.88,3.2-11.08,6.22
				c-5.84,5.5-8.4,13.86-9.88,21.54c-1.7,8.85-3.96,17.36-7.7,25.64c-2.12,4.68-5.05,9.6-9.95,11.13c-1.72,0.54-3.69,0.57-5.23-0.37
				c-5.31-3.25,5.96-36.12-3.93-34.62c-3.73,0.57-7.1,2.45-10.39,4.3c-4.31,2.43-8.62,4.85-12.76,7.57
				c-4.91,3.22-9.94,7.47-10.67,13.3c-0.58,4.65,1.69,8.89,2.89,13.22c1.27,4.59,2.76,9.11,4.46,13.55
				c2.41,6.28,5.89,13.02,12.26,15.18c6.44,2.19,11.05,3.19,9.65,11.39c-0.92,5.38-3.23,10.52-6.66,14.77
				c-0.53,0.66-1.1,1.31-1.81,1.75c-0.96,0.6-2.12,0.79-3.25,0.91c-2.31,0.25-4.69,0.26-6.91-0.44c-4.1-1.29-5.85-4.89-6.43-8.92
				c-0.3-2.07,0.1-2.4-1.31-3.11C58.29,550.6,56.48,551.25,54.54,552.49z"/>
		</g>
		<g>
			<path class="st2" d="M225.17,471.78c2.03-7.47,3.95-15.05,4.7-22.82c0.62-6.42,0.46-12.66-2.03-18.69
				c-2.43-5.88-4.38-11.2-3.94-17.71c0.17-2.58,0.6-5.41-0.84-7.56c-1.51-2.26-4.64-2.9-7.31-2.36s-5.03,2-7.46,3.2
				c-3.57,1.77-7.41,3.02-11.34,3.71c-4.83,0.84-9.86,0.84-14.42,2.64c-5.01,1.99-8.94,6.29-10.84,11.3
				c-2.07,5.44-0.66,10.94-0.56,16.58c0.13,6.91-0.83,13.84-2.82,20.46c-0.9,2.99-2.35,5.9-3,8.88c-0.67,3.07-1.06,6.08-2.02,9.12
				c-3.61,11.34-8.47,22.28-14.46,32.56c-4.47,7.68-15.87,21.35-10.48,30.66c1.13,1.94,2.91,3.35,4.81,4.38
				c8.24,4.5,18.11,2.53,27.14,0.46c11.17-2.56,22.94-5.45,31.3-13.86c7.64-7.69,11.27-18.85,14.51-29.58
				C219.28,492.74,222.31,482.29,225.17,471.78z"/>
		</g>
		<g>
			<path class="st2" d="M266.68,418.51c0-1.12,0.29-2.36,0.52-3.44c1.58-7.19-1.92-11.85-9.1-14.16c-3.82-1.23-7.91-1.32-11.91-1.13
				c-5.08,0.24-10.73,1.24-13.74,5.34c-2.55,3.48-2.42,8.31-1.06,12.4s3.78,7.73,5.63,11.63c10.97,23.2-4.13,50.48-5.34,74.33
				c-0.29,5.65-0.14,12.28,4.41,15.65c1.89,1.4,4.25,1.97,6.56,2.38c4.04,0.73,8.15,1.09,12.26,1.08c1.64,0,3.33-0.08,4.84-0.73
				c1.35-0.58,2.46-1.59,3.58-2.54c6.05-5.06,13.32-8.66,21.01-10.4c3.7-0.84,7.62-1.29,10.82-3.33c5.17-3.29,7.13-9.76,8.71-15.68
				c8.7-32.59,18.65-63.98,33.84-94.35c1.62-4.28,3.13-8.98,2.02-13.45c-1.13-4.51-4.82-7.84-8.85-9.41
				c-9.41-3.68-20.24,1.2-26.99,9.27s-10.21,18.74-13,29.24c-4.74,17.82-8.08,36.09-9.97,54.53c-0.31,3.05-0.74,6.43-2.91,8.37
				c-2.91,2.6-7.6,1.02-9.89-2.24c-2.29-3.26-2.78-7.59-3.06-11.69C264.13,446.29,264.67,432.27,266.68,418.51z"/>
		</g>
		<g>
			<path class="st2" d="M399.77,365.77c-0.04-2.11-0.08-4.27-0.76-6.22c-0.85-2.45-2.63-4.31-4.51-5.77
				c-4.68-3.65-11.02-5.31-15.9-2.05c-4.65,3.11-6.75,9.02-10.19,13.24c-2.69,3.31-7.12,5.73-9.33,9.33
				c-2.7,4.43-1.69,9.69-4.98,14.19c-3.22,4.41-7.86,7.55-11.26,11.81c-5.01,6.29-7.13,14.79-5.65,22.7
				c0.21,1.12,0.51,2.27,1.22,3.16c1.21,1.5,3.28,1.93,5.17,2.29c5.26,1.02,10.45,2.39,15.53,4.09c4.98,1.66,10.14,3.87,13.1,8.2
				c2.2,3.21,2.91,7.24,2.75,11.12c-0.21,5.27-2.04,10.61-5.78,14.33c-3.74,3.72-9.53,5.53-14.52,3.82
				c-5.1-1.75-8.49-6.68-10.33-11.75c-1.84-5.07-2.51-10.5-4.24-15.61c-0.64-1.88-1.74-3.98-3.7-4.26c-0.85-0.12-1.7,0.13-2.49,0.47
				c-6.73,2.9-9.23,10.98-10.96,18.11c-1.72,7.09-3.44,14.18-5.16,21.28c-1.08,4.47-2.1,9.47,0.21,13.45
				c2.89,4.98,9.51,6.03,15.24,6.54c14.95,1.34,28.92,5.09,42.09-3.87c11.55-7.86,20.97-19.97,26.6-34.18
				c2.75-6.95,4.59-15.07,2.16-22.18c-1.87-5.46-5.93-9.39-9.84-13.07c-6.38-6.02-12.76-12.03-19.14-18.05
				c-1.93-1.82-3.95-3.78-4.8-6.51c-0.85-2.73,0.04-6.42,2.41-7.25c2.62-0.91,5,1.93,6.7,4.44c3.38,5,7.19,10.16,12.41,11.96
				c0.85,0.29,1.77,0.49,2.6,0.13c0.91-0.39,1.53-1.36,2.05-2.3c4.42-8,4.61-16.7,4.04-25.83c-0.06-0.88-0.01-1.77,0-2.66
				C400.58,374.5,399.84,370.17,399.77,365.77z"/>
		</g>
		<g>
			<path class="st2" d="M460.68,352.51c0.09-1.01,0.18-2.02,0.25-3.02c0.46-6.82-0.5-14.55-5.84-18.83
				c-3.28-2.63-7.71-3.46-11.91-3.29c-17.97,0.72-26.92,16.07-29.04,32.31c-2.13,16.39-1.12,42.35,13.01,53.3
				c6.89,5.34,16.85,7.01,21.53,14.36c2.36,3.7,2.91,8.25,3.14,12.63c0.08,1.59,0.1,3.28-0.71,4.65
				c-4.12,6.97-16.98-6.49-19.69-9.37c-4.04-4.28-8.09-8.57-12.13-12.85c-4-4.23-9.45-8.86-14.93-6.91c-0.57,0.2-1.13,0.49-1.5,0.96
				c-0.37,0.47-0.53,1.08-0.57,1.68c-0.32,4.08,3.47,7.11,5.91,10.4c4.89,6.6,4.64,15.51,5.16,23.71
				c0.38,6.03,0.64,12.34,5.48,16.26c4.61,3.73,10.57,4.85,16.35,5.12c18.94,0.89,46.6-8.48,48.02-31.05
				c0.73-11.66-7.28-23.15-16.72-29.16c-12.98-8.26-28.15-12.89-34.6-28.06c-1.43-3.36-1.55-7.72-4.64-9.66
				c-0.66-0.42-1.44-0.69-1.96-1.27c-1.31-1.44-0.33-3.85,1.18-5.08c2.29-1.86,5.48-2.3,8.39-1.81c3.51,0.58,7.22,3.11,7.17,6.66
				c-0.01,0.87-0.25,1.77,0.03,2.59c0.57,1.73,2.83,2.04,4.4,2.96c3.53,2.06,3.43,7.36,6.19,10.31c3.6,3.86,9.05,6.68,14.29,7.2
				c0.72,0.07,1.48,0.1,2.14-0.19c1.36-0.58,1.91-2.23,2.03-3.7c0.7-8.6-7.32-15.27-9.95-23.49
				C459.35,364.31,460.13,358.38,460.68,352.51z"/>
		</g>
		<g>
			<path class="st2" d="M559.33,326.8c-0.75-2.54-2.93-4.32-7.24-4.2c-14.28,0.39-23.5,16.48-37.59,18.74
				c-8.62,1.38-17.24-2.81-24.03-8.21c-2.37-1.88-4.71-3.98-7.64-4.8c-5.8-1.62-11.98,2.63-14.33,8.06
				c-2.35,5.43-1.78,11.63-0.77,17.45c0.89,5.16,0.86,10.64,1.82,15.7c0.76,4.03,3.55,7.64,5.28,11.37c0.95,2.05,1.67,4.2,2.39,6.34
				c2.98,8.88,6.87,17.39,10.53,26c1.73,4.07,3.89,8.09,4.1,12.52c0.21,4.41,1.82,7.97,1.07,12.38c-0.57,3.34-1.52,6.63-2.8,9.77
				c-1.16,2.82-2.49,6-2.15,9.12c0.26,2.4,1.94,4.83,4.34,5.12c0.98,0.12,1.96-0.12,2.92-0.36c1.57-0.39,3.13-0.79,4.7-1.18
				c5.94-1.49,9.48-6.7,13.67-10.73c5.19-5.01,11.62-8.72,18.55-10.71c4.38-1.26,9.07-1.9,12.84-4.45
				c4.57-3.09,6.99-8.4,10.38-12.74c1.87-2.39,4.07-4.51,5.79-7.01c1.72-2.5,2.95-5.51,2.53-8.51c-1.57-11.24-20.63-6.05-26.71-2.68
				c-6.71,3.73-12.04,9.43-16.66,15.48c-1.4,1.83-3.47,3.94-5.66,3.13c-1.32-0.49-2.02-1.89-2.56-3.17
				c-2.27-5.43-3.96-11.09-5.04-16.86c-0.49-2.64-0.55-5.96,1.81-7.3c1.45-0.83,3.26-0.53,4.94-0.5c4.76,0.08,9.47-2.42,12-6.37
				c2.53-3.94,2.79-9.2,0.66-13.37c-0.61-1.2-1.45-2.35-2.67-2.95c-1.33-0.65-2.9-0.56-4.37-0.33c-6.08,0.93-11.81,3.87-16.05,8.22
				c-2.84,2.91-6.33,6.83-10.18,5.38c-3.38-1.27-3.88-5.67-3.83-9.21c0.09-5.95,2.32-9.41,8.4-11.24c3.48-1.05,7.17-1.22,10.77-1.76
				c13.07-1.97,23.09-9.6,34.61-15.14c4.35-2.09,8.7-4.43,11.98-7.97C558.23,336.42,560.48,330.71,559.33,326.8z"/>
		</g>
		<g>
			<path class="st2" d="M612.65,308.18c-7.72,0.02-15.73-3.73-23.82-3.72c-29.02,0.01-26.27,36.49-27.12,51.67
				c-0.6,10.75-1.05,22.07,5.15,31.64c3.45,5.32,9.99,11.31,9.36,17.71c-0.67,6.8-5.3,13.05-5.44,20.37
				c-0.02,0.89,0.01,1.83,0.54,2.62c0.59,0.86,1.7,1.42,2.83,1.8c8.75,2.95,18.22-2.42,24.92-7.79
				c6.35-5.09,12.71-11.54,11.39-18.65c-0.79-4.26-4.24-7.85-6.67-11.7c-2.42-3.85-3.7-8.83-0.39-12.23
				c3.02-3.11,8.51-3.62,13.19-4.87c8.8-2.34,15.99-8.22,18.72-15.29c0.81-2.09,0.97-4.82-1.34-6.01c-1.8-0.92-4.15-0.4-6.18,0.13
				c-7.96,2.08-30.43,10.25-35.37,3.48c-5.18-7.1,1.52-18.31,9.77-21.69c6.42-2.63,14.02-2.39,21.08-3.62
				c10.85-1.88,20.59-7.5,26.24-15.13c5.64-7.62,7.1-17.14,3.93-25.62c-0.33-0.89-0.77-1.83-1.72-2.38
				c-0.89-0.51-2.06-0.56-3.16-0.54c-6.95,0.17-13.7,3.11-17.65,7.67c-2.24,2.59-3.64,5.66-6.39,7.92
				C620.66,307.12,616.7,308.17,612.65,308.18z"/>
		</g>
	</g>
</g>
</svg>
