<?xml version="1.0" encoding="utf-8"?>
<!-- Generator: Adobe Illustrator 23.0.3, SVG Export Plug-In . SVG Version: 6.00 Build 0)  -->
<svg version="1.1" id="Layer_1" xmlns="http://www.w3.org/2000/svg" xmlns:xlink="http://www.w3.org/1999/xlink" x="0px" y="0px"
	 viewBox="0 0 720 720" style="enable-background:new 0 0 720 720;" xml:space="preserve">
<style type="text/css">
	.st0{fill:#FFFFFF;}
</style>
<g>
	<g>
		<g>
			<path class="st0" d="M422.93,95.84c0.8,0.3,1.59,0.6,2.37,0.92c1.97,0.79-2.72-1.33,0.68,0.31c1.71,0.82,3.42,1.61,5.1,2.49
				c3.59,1.88,8.19,4.62,10.72,6.59c0.43,0.34,2.65,2.3,3.66,3.32c-0.2-0.2,2.49,2.81,1.45,1.5c-1.01-1.28,1.15,1.76,1.02,1.59
				c0.33,0.44,0.93,2.17,0.14-0.03c0.23,0.66,0.43,1.33,0.58,2.01c-0.43-2.01,0.37,4.05,0.32,3.44c0.16,1.92,0.27,3.84,0.35,5.77
				c0.53,12.24-0.29,24.49-0.58,36.73c-0.3,12.36,0.02,24.74,0.11,37.09c0.39,51.05,0.79,102.09,1.18,153.14
				c0.2,25.98,0.4,51.95,0.6,77.93c0.18,23.91,1.28,48.02,0.32,71.92c-0.34,8.53-1.31,17.54-4.84,24.47
				c-3.81,7.48-9.5,11.78-17.48,14.12c-8.98,2.63-17.67,2.81-27.42,3.14c-12.61,0.43-25.22,0.86-37.83,1.28
				c-25.88,0.86-51.76,1.69-77.65,2.5c-12.61,0.39-25.22,0.78-37.83,1.15c-10.62,0.32-22.09,1.72-32.55-0.42
				c-3.97-0.81-8.71-2.76-11.17-4.62c-2.49-1.88-4.95-5.01-6.34-7.33c-2.51-4.18-2.75-4.89-4.16-9.52
				c-1.33-4.34-2.27-8.81-2.91-13.3c0.19,1.34-0.3-2.78-0.38-3.57c-0.22-2.3-0.38-4.6-0.5-6.91c-0.28-5.13-0.33-10.26-0.41-15.4
				c-0.2-12.44-0.4-24.89-0.59-37.33c-0.79-50.75-1.54-101.51-2.31-152.26c-0.39-25.49-0.77-50.97-1.16-76.46
				c-0.35-22.86-1.63-45.94-0.36-68.79c0.93-16.75,4.25-35.42,15.48-47.55c12.08-13.04,30.06-16.79,47.36-17.73
				c22.84-1.25,45.95,0.44,68.79,1.07c24.75,0.68,49.68,0.57,74.37,2.39C401.97,90.31,412.61,92.18,422.93,95.84
				c6.36,2.25,13.68-2.55,15.38-8.73c1.9-6.91-2.34-13.11-8.73-15.38c-24.24-8.58-50.72-7.91-76.08-8.61
				c-27.02-0.75-54.04-1.55-81.06-2.24c-21.01-0.53-43.27-0.4-63.04,7.61c-21.42,8.68-36.29,25.35-43.46,47.25
				c-6.57,20.04-6.45,41.81-6.14,62.66c0.41,26.81,0.81,53.62,1.22,80.43c0.82,54.16,1.63,108.32,2.46,162.48
				c0.39,25.81,0.22,51.7,1.3,77.49c0.83,20.02,4,41.13,17.48,56.83c16.75,19.5,43.49,17.24,66.65,16.55
				c26.88-0.81,53.76-1.64,80.64-2.51c26.57-0.86,53.2-1.33,79.76-2.71c22.69-1.18,46.58-6.95,58.08-28.69
				c10.87-20.56,8.75-45.22,8.58-67.68c-0.21-26.97-0.42-53.95-0.62-80.92c-0.42-54.22-0.83-108.44-1.25-162.67
				c-0.21-26.69-0.8-53.39,0.1-80.06c0.22-6.44,0.4-12.89,0.26-19.34c-0.15-6.53-0.1-13.89-1.81-20.22
				c-2.76-10.19-10.78-17.57-19.11-23.46c-7.33-5.18-15.56-9.06-23.95-12.19c-6.33-2.36-13.7,2.63-15.38,8.73
				C412.28,87.46,416.58,93.47,422.93,95.84z"/>
		</g>
	</g>
	<g>
		<g>
			<path class="st0" d="M306.59,509.76c0.12-4.48,0.28-8.63,2.15-12.72c2.28-4.97,3.86-5.5,8.67-6.31c3.81-0.64,6.13-1.25,8.53,0.67
				c1.03,0.82,1.6,1.55,2.2,3.54c0.71,2.32,0.58,4.84,0.6,7.23c0.03,2.93,0,5.86,0,8.78c0,1.1-0.75,7.61-0.03,8.22
				c-1.96-1.66,9.77-8.27,1.51-6.1c-1.61,0.42-3.22,0.85-4.82,1.27c-3.04,0.8-6.06,1.65-9.12,2.39c-2.37,0.58-3.73,0.92-5.42,1.02
				c0.09-0.01-4.03-0.01-2.34,0.15c-0.44-0.1-0.89-0.21-1.33-0.31c0.67,0.4,0.64,0.38-0.1-0.05c-1.37-0.74-0.04-0.17,0.11,0.08
				c0.67,1.15-0.35-1.23-0.44-1.66C306.6,515.11,306.56,511.86,306.59,509.76c0.19-16.09-24.81-16.1-25,0
				c-0.08,7.18,0.47,14.85,4.42,21.08c4.78,7.54,12.56,11.22,21.28,11.89c7.03,0.54,14.17-1.48,20.91-3.25
				c8.1-2.14,18.41-3.23,23.07-11.15c3.81-6.48,2.49-15.41,2.5-22.63c0-8.51-0.22-17.42-4.59-25.02
				c-3.97-6.91-10.65-11.76-18.13-14.25c-7.3-2.43-15.09-1.01-22.42,0.57c-19.65,4.25-26.58,24.96-27.04,42.76
				C281.17,525.85,306.18,525.84,306.59,509.76z"/>
		</g>
	</g>
	<g>
		<g>
			<path class="st0" d="M424.81,429.81c-34.24-0.59-68.48-1.19-102.73-1.78c-16.95-0.29-33.91-0.59-50.86-0.88
				c-8.64-0.15-17.29-0.3-25.93-0.45c-3.99-0.07-7.98-0.14-11.97-0.21c-1.99-0.03-3.99-0.07-5.98-0.1
				c-1.33-0.02-2.66-0.05-3.99-0.07c-2.84-0.21-2.67,0,0.52,0.62c1.49,1.49,2.99,2.99,4.48,4.48c1.29,1.92,0.29,2.72,0.11,0.22
				c-0.09-1.27-0.22-2.54-0.31-3.82c-0.19-2.54-0.36-5.09-0.5-7.63c-0.28-5.09-0.44-10.18-0.52-15.28
				c-0.15-10.52,0.1-21.04,0.6-31.54c1-20.78,3-41.5,4.96-62.21c3.87-41.09,7.28-82.27,2.9-123.46
				c-2.48-23.31-6.23-46.58-4.45-70.08c-4.17,4.17-8.33,8.33-12.5,12.5c32.06-3.7,63.51,3.27,95.04,8.07
				c16.82,2.56,33.81,4.71,50.85,4.35c4.39-0.09,45.45-3.34,45.39-0.1c0,0.24-1.6-1.43-1.6-1.43c-0.02,0,0.33-1.91,0.26,0.45
				c-0.04,1.45,0.5,2.33,0.58,3.69c0.28,4.44,0.29,8.91,0.36,13.35c0.13,8.5,0.1,17.01-0.09,25.52c-0.4,17.33-1.47,34.64-3.23,51.88
				c-3.55,34.77-10.5,69.33-10.18,104.4c0.17,18.33,2.42,36.61,5.52,54.65c1.53,8.91,3.3,17.77,5.19,26.61
				c1.94,9.1,3.29,18.66,7.33,27.02c2.94,6.08,11.6,7.7,17.1,4.48c6.21-3.63,7.43-11,4.48-17.1c0.01,0.02-0.72-1.95-0.47-1.01
				c0.36,1.37-0.41-2.18-0.46-2.4c-0.4-1.76-0.79-3.52-1.18-5.29c-0.98-4.41-1.95-8.82-2.89-13.24c-1.69-7.96-3.29-15.94-4.69-23.95
				c-2.77-15.81-4.64-31.76-4.91-47.83c-0.59-35.73,6.55-70.95,10.16-106.36c1.83-17.89,2.92-35.86,3.27-53.85
				c0.18-8.83,0.17-17.67-0.01-26.5c-0.18-8.81,0.33-18.62-4.2-26.52c-9.27-16.18-33.07-13.46-48.8-12.42
				c-16.77,1.1-33.16,1.02-49.86-0.98c-37.58-4.5-74.84-14.94-112.97-10.53c-7.13,0.82-11.94,5.08-12.5,12.5
				c-2.65,34.93,6.03,69.64,6.59,104.54c0.56,34.89-3.27,69.64-6.47,104.33c-3.16,34.29-5.79,68.85-2.95,103.26
				c0.41,5.01,0.67,9.97,3.46,14.31c3.33,5.16,8.76,6.91,14.59,7.24c8.94,0.51,17.98,0.31,26.93,0.47
				c17.95,0.31,35.9,0.62,53.86,0.94c40.89,0.71,81.78,1.42,122.67,2.13C440.91,455.09,440.91,430.09,424.81,429.81L424.81,429.81z"
				/>
		</g>
	</g>
</g>
</svg>
