<?xml version="1.0" encoding="utf-8"?>
<!-- Generator: Adobe Illustrator 23.0.3, SVG Export Plug-In . SVG Version: 6.00 Build 0)  -->
<svg version="1.1" id="Layer_1" xmlns="http://www.w3.org/2000/svg" xmlns:xlink="http://www.w3.org/1999/xlink" x="0px" y="0px"
	 viewBox="0 0 720 720" style="enable-background:new 0 0 720 720;" xml:space="preserve">
<style type="text/css">
	.st0{fill:#FFFFFF;}
</style>
<g>
	<g>
		<g>
			<path class="st0" d="M224.85,569.19c-46.44-16.78-87.48-50.14-114.5-91.62c-29.08-44.65-44.81-99.2-36.55-152.52
				c4.88-31.53,16.1-61.73,30.49-90.09c13.84-27.28,29.88-54.32,50.14-77.36c18.41-20.93,40.19-37.05,65.59-48.52
				c23.46-10.59,50.97-17.45,77.21-21.56c25.64-4.02,53.48-5.44,80.21-4.97c27.62,0.48,53.06,2.88,79.42,11.62
				c52.68,17.45,101.97,53.65,135.05,97.56c33.5,44.47,52.68,98.92,55.91,153.85c3.25,55.38-8.72,111.27-37.61,158.99
				c-14.15,23.37-32.6,44.77-55.26,60.07c-26.02,17.57-56.34,26.36-87.13,30.94c-64.61,9.63-132.53,4.2-195.63-11.91
				C256.18,579.57,240.4,574.72,224.85,569.19c-6.36-2.26-13.68,2.56-15.38,8.73c-1.9,6.92,2.35,13.11,8.73,15.38
				c66.7,23.73,138.26,34.41,208.99,30.98c33.82-1.64,68.36-5.83,100.23-17.81c30.09-11.31,56.71-29.39,78.04-53.48
				c40.59-45.84,62.5-106.19,67.03-166.79c4.47-59.78-8.61-121.11-37.45-173.69c-29.32-53.45-76.44-97.46-130.58-125.2
				c-27.63-14.15-57.17-23.98-88.05-27.57c-27.49-3.2-55.78-2.99-83.36-1.12c-56.63,3.84-117.51,16.25-163.74,51.16
				c-26.37,19.91-47.04,45.7-64.52,73.56c-18.06,28.78-33.66,59.51-44.43,91.79c-10.71,32.1-16.32,66.71-12.5,100.51
				c3.23,28.53,11,56.01,23,82.1c22.84,49.65,61.87,92.17,109.73,118.64c12.04,6.66,24.68,12.25,37.62,16.92
				c6.35,2.29,13.69-2.58,15.38-8.73C235.49,577.62,231.22,571.49,224.85,569.19z"/>
		</g>
	</g>
	<g>
		<g>
			<path class="st0" d="M370.09,76.75c2.36,34.8-1.2,69.55-4.01,104.21c-2.83,34.93-5.21,69.89-7.4,104.86
				c-4.34,69.39-8.19,138.81-12.22,208.22c-1.13,19.52-2.27,39.04-3.4,58.56c-1.14,19.69-2.33,39.27,1.84,58.72
				c1.42,6.6,9.14,10.45,15.38,8.73c6.83-1.88,10.15-8.75,8.73-15.38c-3.38-15.78-2.1-32.12-1.18-48.1
				c1.02-17.53,2.04-35.07,3.06-52.6c2-34.41,4-68.82,6-103.22c4.01-69,7.8-138.02,13.17-206.93c3.03-38.91,7.69-77.99,5.03-117.06
				c-0.46-6.74-5.42-12.5-12.5-12.5C376.18,64.25,369.63,69.98,370.09,76.75L370.09,76.75z"/>
		</g>
	</g>
	<g>
		<g>
			<path class="st0" d="M70.92,314.47c76.3,0.8,152.66,2.22,228.75,8.33c75.56,6.07,150.1,18.76,224.81,31.19
				c42.96,7.15,85.93,14.3,128.89,21.45c6.65,1.11,13.46-1.75,15.38-8.73c1.64-5.99-2.03-14.26-8.73-15.38
				c-76.2-12.68-152.33-26-228.68-37.81c-76.32-11.81-153.01-18.48-230.17-21.34c-43.4-1.61-86.83-2.26-130.26-2.72
				C54.82,289.3,54.81,314.3,70.92,314.47L70.92,314.47z"/>
		</g>
	</g>
	<g>
		<g>
			<path class="st0" d="M137.89,178.9c123.38,3.59,246.98,10.11,369.29,27.4c34.86,4.93,69.59,10.72,104.14,17.49
				c6.62,1.3,13.49-1.88,15.38-8.73c1.69-6.14-2.07-14.07-8.73-15.38c-123.41-24.18-248.93-35.73-374.42-41.79
				c-35.2-1.7-70.43-2.97-105.66-3.99C121.8,153.43,121.81,178.43,137.89,178.9L137.89,178.9z"/>
		</g>
	</g>
	<g>
		<g>
			<path class="st0" d="M619.51,500.05c-70.27,4.45-139.94,0.08-209.6-9.51c-69.79-9.6-139.35-20.93-208.6-33.88
				c-39.28-7.35-78.45-15.23-117.51-23.63c-6.59-1.42-13.52,1.96-15.38,8.73c-1.71,6.23,2.1,13.95,8.73,15.38
				c69.5,14.95,139.35,28.24,209.48,39.83c34.93,5.77,69.93,11.13,104.99,16.06c35.68,5.02,71.45,9.73,107.42,12.07
				c40.11,2.61,80.36,2.49,120.46-0.05c6.74-0.43,12.5-5.44,12.5-12.5C632.01,506.11,626.29,499.62,619.51,500.05L619.51,500.05z"/>
		</g>
	</g>
	<g>
		<g>
			<path class="st0" d="M326.22,61.1c-6.26,1.55-10.59,5.27-14.37,10.31c1.49-1.49,2.99-2.99,4.48-4.48
				c-3.49,2.01-8.31,2.59-12.19,4.47c-3.59,1.74-7.06,3.86-10.44,6c-7.25,4.58-14.14,9.78-20.66,15.34
				c-12.96,11.06-24.11,24.09-33.92,37.98c-19.59,27.73-33.11,59.89-41.17,92.79c-9.73,39.68-12.12,80.89-11.46,121.62
				c0.67,41.38,2.85,83.15,11.69,123.68c9.57,43.89,25.98,86.04,45.51,126.41c2.94,6.08,11.6,7.7,17.1,4.48
				c6.21-3.63,7.43-11,4.48-17.1c-16.61-34.34-30.55-70-39.84-107.04c-9.65-38.47-12.41-77.62-13.62-117.14
				c-2.21-71.97,4.16-146.76,44.17-208.12c9.4-14.42,20.41-27.44,33.61-38.9c6.37-5.53,13.02-10.3,20.6-14.76
				c3.87-2.28,7.15-3.57,11.38-4.91c2.52-0.8,5.15-1.79,7.4-3.2c0.75-0.47,3.6-4.17,4.48-4.48c-0.82,0.29-3.45,1.89-0.57,1.18
				C348.47,81.35,341.86,57.24,326.22,61.1L326.22,61.1z"/>
		</g>
	</g>
	<g>
		<g>
			<path class="st0" d="M425.4,86.98c3.85,1.67,7.41,3.83,11.06,5.88c4.25,2.39,8.76,3.94,13.19,5.91
				c7.73,3.44,14.08,9.36,19.59,15.65c11.43,13.06,19,29.49,25.33,45.49c14.08,35.6,26.67,72.88,30.03,111.23
				c3.56,40.63-2.44,81.18-8.67,121.24c-5.58,35.89-11.21,72.11-23.28,106.51c-6.62,18.9-15.69,36.43-26.77,53.1
				c-11.39,17.15-23.18,33.94-29.5,53.76c-4.9,15.36,19.23,21.94,24.11,6.65c5.43-17.03,16.21-31.66,26.04-46.38
				c10.71-16.04,19.56-32.8,26.62-50.76c13.75-34.96,20.02-72.29,25.8-109.24c6.51-41.63,13.61-83.82,11.28-126.11
				c-2.28-41.4-14.1-81.27-28.88-119.78c-7.97-20.76-16.72-41.1-30.56-58.69c-6.86-8.71-15.08-16.6-24.68-22.25
				c-4.47-2.64-9.5-4.06-14.12-6.35c-4.74-2.35-9.11-5.34-13.98-7.46c-6.19-2.69-13.41-1.83-17.1,4.48
				C417.82,75.16,419.17,84.27,425.4,86.98L425.4,86.98z"/>
		</g>
	</g>
</g>
</svg>
